<?xml version="1.0" encoding="UTF-8"?>
<svg id="Camada_1" xmlns="http://www.w3.org/2000/svg" xmlns:xlink="http://www.w3.org/1999/xlink" version="1.1" viewBox="0 0 700 700">
  <!-- Generator: Adobe Illustrator 29.5.1, SVG Export Plug-In . SVG Version: 2.1.0 Build 141)  -->
  <defs>
    <style>
      .st0 {
        fill: #004f91;
      }

      .st1 {
        fill: url(#Degradês_21);
      }

      .st2 {
        fill: url(#Degradês_24);
      }

      .st3 {
        fill: url(#Degradês_22);
      }

      .st4 {
        fill: url(#Degradês_25);
      }

      .st5 {
        fill: url(#Degradês_29);
      }

      .st6 {
        fill: url(#Degradês_23);
      }

      .st7 {
        fill: url(#Degradês_26);
      }

      .st8 {
        fill: url(#Degradês_27);
      }

      .st9 {
        fill: url(#Degradês_28);
      }

      .st10 {
        fill: url(#Degradês_2);
      }

      .st11 {
        fill: url(#Degradês_223);
      }

      .st12 {
        fill: url(#Degradês_220);
      }

      .st13 {
        fill: url(#Degradês_224);
      }

      .st14 {
        fill: url(#Degradês_221);
      }

      .st15 {
        fill: url(#Degradês_222);
      }

      .st16 {
        fill: url(#Degradês_211);
      }

      .st17 {
        fill: url(#Degradês_212);
      }

      .st18 {
        fill: url(#Degradês_215);
      }

      .st19 {
        fill: url(#Degradês_216);
      }

      .st20 {
        fill: url(#Degradês_213);
      }

      .st21 {
        fill: url(#Degradês_214);
      }

      .st22 {
        fill: url(#Degradês_219);
      }

      .st23 {
        fill: url(#Degradês_210);
      }

      .st24 {
        fill: url(#Degradês_217);
      }

      .st25 {
        fill: url(#Degradês_218);
      }
    </style>
    <linearGradient id="Degradês_2" data-name="Degradês 2" x1="42.1" y1="698.8" x2="763.2" y2="208.5" gradientUnits="userSpaceOnUse">
      <stop offset="0" stop-color="#002769"/>
      <stop offset="0" stop-color="#004682"/>
      <stop offset=".1" stop-color="#006098"/>
      <stop offset=".2" stop-color="#0073a8"/>
      <stop offset=".2" stop-color="#007fb1"/>
      <stop offset=".3" stop-color="#0083b5"/>
      <stop offset=".7" stop-color="#52aa2b"/>
      <stop offset=".9" stop-color="#00a2cc"/>
      <stop offset="1" stop-color="#002a6b"/>
    </linearGradient>
    <linearGradient id="Degradês_21" data-name="Degradês 2" x1="-20.2" y1="607.1" x2="700.9" y2="116.9" xlink:href="#Degradês_2"/>
    <linearGradient id="Degradês_22" data-name="Degradês 2" x1="-101.8" y1="487" x2="619.2" y2="-3.2" xlink:href="#Degradês_2"/>
    <linearGradient id="Degradês_23" data-name="Degradês 2" x1="-151.8" y1="413.5" x2="569.2" y2="-76.8" xlink:href="#Degradês_2"/>
    <linearGradient id="Degradês_24" data-name="Degradês 2" x1="-55.8" y1="554.7" x2="665.3" y2="64.5" xlink:href="#Degradês_2"/>
    <linearGradient id="Degradês_25" data-name="Degradês 2" x1="-131.3" y1="443.7" x2="589.8" y2="-46.5" xlink:href="#Degradês_2"/>
    <linearGradient id="Degradês_26" data-name="Degradês 2" x1="-116.4" y1="465.6" x2="604.7" y2="-24.6" xlink:href="#Degradês_2"/>
    <linearGradient id="Degradês_27" data-name="Degradês 2" x1="-63.9" y1="542.8" x2="657.2" y2="52.6" xlink:href="#Degradês_2"/>
    <linearGradient id="Degradês_28" data-name="Degradês 2" x1="-138.6" y1="432.9" x2="582.5" y2="-57.3" xlink:href="#Degradês_2"/>
    <linearGradient id="Degradês_29" data-name="Degradês 2" x1="-95.1" y1="496.9" x2="625.9" y2="6.6" xlink:href="#Degradês_2"/>
    <linearGradient id="Degradês_210" data-name="Degradês 2" x1="-94" y1="498.5" x2="627" y2="8.3" xlink:href="#Degradês_2"/>
    <linearGradient id="Degradês_211" data-name="Degradês 2" x1="20.6" y1="667" x2="741.6" y2="176.8" xlink:href="#Degradês_2"/>
    <linearGradient id="Degradês_212" data-name="Degradês 2" x1="20.6" y1="667" x2="741.6" y2="176.8" xlink:href="#Degradês_2"/>
    <linearGradient id="Degradês_213" data-name="Degradês 2" x1="20.6" y1="667" x2="741.6" y2="176.8" xlink:href="#Degradês_2"/>
    <linearGradient id="Degradês_214" data-name="Degradês 2" x1="20.6" y1="667" x2="741.6" y2="176.8" xlink:href="#Degradês_2"/>
    <linearGradient id="Degradês_215" data-name="Degradês 2" x1="20.6" y1="667" x2="741.6" y2="176.8" xlink:href="#Degradês_2"/>
    <linearGradient id="Degradês_216" data-name="Degradês 2" x1="20.6" y1="667" x2="741.6" y2="176.8" xlink:href="#Degradês_2"/>
    <linearGradient id="Degradês_217" data-name="Degradês 2" x1="20.6" y1="667" x2="741.6" y2="176.8" xlink:href="#Degradês_2"/>
    <linearGradient id="Degradês_218" data-name="Degradês 2" x1="20.6" y1="667" x2="741.6" y2="176.8" xlink:href="#Degradês_2"/>
    <linearGradient id="Degradês_219" data-name="Degradês 2" x1="20.6" y1="667" x2="741.6" y2="176.8" xlink:href="#Degradês_2"/>
    <linearGradient id="Degradês_220" data-name="Degradês 2" x1="20.6" y1="667" x2="741.6" y2="176.8" xlink:href="#Degradês_2"/>
    <linearGradient id="Degradês_221" data-name="Degradês 2" x1="-27.3" y1="596.7" x2="693.8" y2="106.4" xlink:href="#Degradês_2"/>
    <linearGradient id="Degradês_222" data-name="Degradês 2" x1="-11.9" y1="619.2" x2="709.1" y2="129" xlink:href="#Degradês_2"/>
    <linearGradient id="Degradês_223" data-name="Degradês 2" x1="13.4" y1="656.5" x2="734.5" y2="166.3" xlink:href="#Degradês_2"/>
    <linearGradient id="Degradês_224" data-name="Degradês 2" x1="33.5" y1="686" x2="754.5" y2="195.8" xlink:href="#Degradês_2"/>
  </defs>
  <path class="st10" d="M166,483.8c41.9,33.8,87.2,63.8,134.5,91.8h0c15.3,9.1,30.3,13.4,45.2,13.4,14.8,0,29.7-4.3,45-13.3h0c18.8-11,37.2-22.4,55.2-34.3l6.2,9.4c-18.2,12-36.8,23.5-55.7,34.6h0c-16.6,9.8-33.6,14.8-50.7,14.8-17.2,0-34.2-5.1-50.9-15h0c-47.6-28.2-93.4-58.5-135.8-92.8l7.1-8.8Z"/>
  <path class="st1" d="M655.4,331.6c8.1-19.5,12.8-39.5,12.8-60.7,0-6.9-.5-13.9-1.5-21-5.2-35.7-19.8-66.8-47.5-92.5-33.6-31-73.2-46.4-118.9-46.4-7.5,0-15.2.4-23.1,1.3-27.1,2.9-51.1,11.4-72.6,24.3l-5.8-9.7c22.8-13.7,48.5-22.8,77.2-25.9,8.2-.9,16.3-1.3,24.3-1.3,48.2,0,91.1,16.6,126.5,49.4,29.7,27.4,45.6,61.4,51,99.1,1.1,7.7,1.6,15.2,1.6,22.6,0,22.8-5,44.5-13.7,65.1l-10.4-4.4Z"/>
  <path class="st3" d="M346.3,351.8c20.9-52,14.4-113.4-22.6-160.7-37-47.3-95-68.5-150.4-60.8l32.5-21.9c56,0,110.5,29.1,140.5,81.1,30,52,28,113.7,0,162.2"/>
  <path class="st6" d="M182.7,108.5c-27.3,3.8-54,14.6-77.3,32.8-70.6,55.2-83.1,157.1-28,227.7l-35.2-17.2C-2.6,274.2,24,175,101.6,130.2c25.6-14.8,53.5-21.8,81.1-21.8"/>
  <path class="st2" d="M53.8,374.9c55.2,70.6,157.1,83.1,227.7,28,23.3-18.2,40.3-41.5,50.6-67l2.7,39.1c-13.8,23.9-33.8,44.6-59.4,59.4-77.6,44.8-176.8,18.2-221.6-59.4"/>
  <path class="st4" d="M306.4,239.1c-15.6-36.8-49.9-64.4-92.4-69.6-42.5-5.2-82.4,13.3-106.5,45.2l5.3-27.4c28.3-28.2,70.4-41,111.7-29.9,41.3,11.1,71.4,43.2,81.8,81.8"/>
  <path class="st7" d="M101.2,198.9c-11.8,15.7-19.8,34.6-22.4,55.5-7.8,63.4,37.3,121.1,100.7,128.9l-26.4,9.1c-61.7-16.5-98.3-79.9-81.8-141.6,5.4-20.4,16-38,29.9-51.9"/>
  <path class="st8" d="M170.6,398.2c63.4,7.8,121.1-37.3,128.9-100.7,2.6-20.9-.6-41.2-8.3-59.3l21.1,18.3c5.1,19,5.4,39.5,0,59.9-16.5,61.7-79.9,98.3-141.6,81.8"/>
  <path class="st9" d="M228.1,204.8c-24.9-10-54.3-6.9-76.9,10.8-22.6,17.7-32.8,45.4-29.1,72l-10.5-15.6c0-26.8,13.9-52.9,38.8-67.3,24.9-14.4,54.4-13.4,77.7,0"/>
  <path class="st5" d="M111.6,283.1c1.8,13.1,7,25.8,15.7,37,26.4,33.8,75.2,39.8,109,13.4l-8.2,16.9c-37.1,21.4-84.6,8.7-106.1-28.4-7.1-12.2-10.4-25.6-10.4-38.8"/>
  <path class="st23" d="M239.2,344.8c33.8-26.4,39.8-75.2,13.4-109-8.7-11.2-19.9-19.3-32.1-24.2l18.7-1.3c11.4,6.6,21.3,16.2,28.4,28.4,21.4,37.2,8.7,84.6-28.4,106.1"/>
  <g>
    <g>
      <path class="st0" d="M446.7,231.5l-15.5-22h-10.7v22h-14.5v-67.7h30.4c14.7,0,25.5,9.5,25.5,22.9s-6.1,17.9-15.4,21.2l16.7,23.6h-16.6ZM420.5,196.3h14.4c7.2,0,12.1-3.7,12.1-9.6s-4.9-9.6-12.1-9.6h-14.4v19.1Z"/>
      <path class="st0" d="M487.4,176.9v13.5h34v13.1h-34v14.9h37.5v13.1h-52.1v-67.7h52.1v13.1h-37.5Z"/>
      <path class="st0" d="M403.4,293c0-19,16.6-35,36-35s19.7,4.3,26.3,11.3l-10.5,9.5c-3.9-4.5-9.6-7.6-15.8-7.6-11.3,0-21,10.1-21,21.8s9.7,21.9,21,21.9,11.8-3.1,15.8-7.6l10.5,9.5c-6.6,6.9-16.1,11.3-26.3,11.3-19.4,0-36-16.1-36-35.1Z"/>
      <path class="st0" d="M470.5,293c0-19,16.6-35,36-35s36,16,36,35-16.4,35.1-36,35.1-36-16.1-36-35.1ZM527.5,293c0-11.7-9.7-21.8-21.1-21.8s-21,10.1-21,21.8,9.7,21.9,21,21.9,21.1-10.1,21.1-21.9Z"/>
      <path class="st0" d="M406.6,354.5h14.5l32.6,43.8v-43.8h14.6v67.7h-14.6l-32.6-43.8v43.8h-14.5v-67.7Z"/>
      <path class="st0" d="M542.1,354.5v67.7h-14.5v-28h-30.8v28h-14.5v-67.7h14.5v26.6h30.8v-26.6h14.5Z"/>
      <path class="st0" d="M570.1,367.6v13.5h34v13.1h-34v14.9h37.5v13.1h-52.1v-67.7h52.1v13.1h-37.5Z"/>
      <path class="st0" d="M403.4,483.7c0-19,16.6-35,36-35s19.7,4.3,26.3,11.3l-10.5,9.5c-3.9-4.5-9.6-7.6-15.8-7.6-11.3,0-21,10.1-21,21.8s9.7,21.9,21,21.9,11.8-3.1,15.8-7.6l10.5,9.5c-6.6,6.9-16.1,11.3-26.3,11.3-19.4,0-36-16.1-36-35.1Z"/>
      <path class="st0" d="M489.2,463v13.5h34v13.1h-34v14.9h37.5v13.1h-52.1v-67.7h52.1v13.1h-37.5Z"/>
      <path class="st0" d="M578.5,517.6l-15.5-22h-10.7v22h-14.5v-67.7h30.4c14.7,0,25.5,9.5,25.5,22.9s-6.1,17.9-15.4,21.2l16.7,23.6h-16.6ZM552.3,482.3h14.4c7.2,0,12.1-3.7,12.1-9.6s-4.9-9.6-12.1-9.6h-14.4v19.1Z"/>
    </g>
    <g>
      <path class="st16" d="M446.7,231.5l-15.5-22h-10.7v22h-14.5v-67.7h30.4c14.7,0,25.5,9.5,25.5,22.9s-6.1,17.9-15.4,21.2l16.7,23.6h-16.6ZM420.5,196.3h14.4c7.2,0,12.1-3.7,12.1-9.6s-4.9-9.6-12.1-9.6h-14.4v19.1Z"/>
      <path class="st17" d="M487.4,176.9v13.5h34v13.1h-34v14.9h37.5v13.1h-52.1v-67.7h52.1v13.1h-37.5Z"/>
      <path class="st20" d="M403.4,293c0-19,16.6-35,36-35s19.7,4.3,26.3,11.3l-10.5,9.5c-3.9-4.5-9.6-7.6-15.8-7.6-11.3,0-21,10.1-21,21.8s9.7,21.9,21,21.9,11.8-3.1,15.8-7.6l10.5,9.5c-6.6,6.9-16.1,11.3-26.3,11.3-19.4,0-36-16.1-36-35.1Z"/>
      <path class="st21" d="M470.5,293c0-19,16.6-35,36-35s36,16,36,35-16.4,35.1-36,35.1-36-16.1-36-35.1ZM527.5,293c0-11.7-9.7-21.8-21.1-21.8s-21,10.1-21,21.8,9.7,21.9,21,21.9,21.1-10.1,21.1-21.9Z"/>
      <path class="st18" d="M406.6,354.5h14.5l32.6,43.8v-43.8h14.6v67.7h-14.6l-32.6-43.8v43.8h-14.5v-67.7Z"/>
      <path class="st19" d="M542.1,354.5v67.7h-14.5v-28h-30.8v28h-14.5v-67.7h14.5v26.6h30.8v-26.6h14.5Z"/>
      <path class="st24" d="M570.1,367.6v13.5h34v13.1h-34v14.9h37.5v13.1h-52.1v-67.7h52.1v13.1h-37.5Z"/>
      <path class="st25" d="M403.4,483.7c0-19,16.6-35,36-35s19.7,4.3,26.3,11.3l-10.5,9.5c-3.9-4.5-9.6-7.6-15.8-7.6-11.3,0-21,10.1-21,21.8s9.7,21.9,21,21.9,11.8-3.1,15.8-7.6l10.5,9.5c-6.6,6.9-16.1,11.3-26.3,11.3-19.4,0-36-16.1-36-35.1Z"/>
      <path class="st22" d="M489.2,463v13.5h34v13.1h-34v14.9h37.5v13.1h-52.1v-67.7h52.1v13.1h-37.5Z"/>
      <path class="st12" d="M578.5,517.6l-15.5-22h-10.7v22h-14.5v-67.7h30.4c14.7,0,25.5,9.5,25.5,22.9s-6.1,17.9-15.4,21.2l16.7,23.6h-16.6ZM552.3,482.3h14.4c7.2,0,12.1-3.7,12.1-9.6s-4.9-9.6-12.1-9.6h-14.4v19.1Z"/>
    </g>
  </g>
  <g>
    <path class="st14" d="M600,171.8h-9.2v21.2h-8.2v-21.2h-16.7v-9.1h42.2v32.5h-8.2v-23.4Z"/>
    <path class="st15" d="M572.6,230v-18.8l-6.6-2.7v-10.1l42.2,17.2v10.1l-42.2,17.2v-10.2l6.6-2.7ZM580.3,226.8l15.4-6.3-15.4-6.3v12.5Z"/>
    <path class="st11" d="M608.2,285.2h-42.2v-9h17.5v-19.2h-17.5v-9h42.2v9h-16.6v19.2h16.6v9Z"/>
    <path class="st13" d="M572.8,292.3l27.2,22.2v-21.7h8.2v34.2h-6.9l-27.2-22.2v22.4h-8.2v-34.9h6.9Z"/>
  </g>
</svg>