<?xml version="1.0" encoding="UTF-8"?>
<svg id="Camada_1" xmlns="http://www.w3.org/2000/svg" xmlns:xlink="http://www.w3.org/1999/xlink" version="1.1" viewBox="0 0 700 700">
  <!-- Generator: Adobe Illustrator 30.2.1, SVG Export Plug-In . SVG Version: 2.1.1 Build 1)  -->
  <defs>
    <style>
      .st0 {
        fill: url(#Gradiente_sem_nome_1242);
      }

      .st0, .st1, .st2, .st3, .st4, .st5, .st6, .st7, .st8, .st9, .st10, .st11, .st12, .st13, .st14, .st15, .st16, .st17, .st18, .st19, .st20, .st21, .st22, .st23, .st24, .st25, .st26, .st27, .st28 {
        fill-rule: evenodd;
      }

      .st1 {
        fill: url(#Gradiente_sem_nome_1241);
      }

      .st2 {
        fill: url(#Gradiente_sem_nome_1243);
      }

      .st3 {
        fill: url(#Gradiente_sem_nome_1244);
      }

      .st4 {
        fill: url(#Gradiente_sem_nome_1091);
      }

      .st5 {
        fill: url(#Gradiente_sem_nome_1092);
      }

      .st29 {
        mask: url(#mask);
      }

      .st30 {
        fill: #7ac143;
      }

      .st31 {
        filter: url(#luminosity-noclip);
      }

      .st6 {
        fill: url(#Gradiente_sem_nome_163);
      }

      .st7 {
        fill: url(#Gradiente_sem_nome_177);
      }

      .st8 {
        fill: url(#Gradiente_sem_nome_109);
      }

      .st9 {
        fill: url(#Gradiente_sem_nome_124);
      }

      .st10 {
        fill: url(#Degradês_1);
      }

      .st11 {
        fill: url(#Degradês_2);
      }

      .st32 {
        fill: #00b9f2;
      }

      .st33 {
        filter: url(#luminosity-noclip2);
      }

      .st34 {
        filter: url(#luminosity-noclip4);
      }

      .st12 {
        fill: url(#Degradês_21);
      }

      .st13 {
        fill: url(#Degradês_22);
      }

      .st35 {
        fill: #005496;
      }

      .st14 {
        fill: url(#Barra_faixa_gradiente9);
      }

      .st15 {
        fill: url(#Barra_faixa_gradiente8);
      }

      .st16 {
        fill: url(#Barra_faixa_gradiente7);
      }

      .st36 {
        mask: url(#mask-2);
      }

      .st37 {
        mask: url(#mask-3);
      }

      .st38 {
        mask: url(#mask-4);
      }

      .st39 {
        mask: url(#mask-5);
      }

      .st40 {
        mask: url(#mask-7);
      }

      .st41 {
        mask: url(#mask-6);
      }

      .st42 {
        mask: url(#mask-1);
      }

      .st17 {
        fill: url(#linear-gradient1);
      }

      .st17, .st18, .st19 {
        mix-blend-mode: multiply;
      }

      .st18 {
        fill: url(#linear-gradient5);
      }

      .st19 {
        fill: url(#linear-gradient3);
      }

      .st20 {
        fill: url(#Barra_faixa_gradiente_21);
      }

      .st21 {
        fill: url(#Barra_faixa_gradiente_22);
      }

      .st22 {
        fill: url(#Barra_faixa_gradiente15);
      }

      .st23 {
        fill: url(#Barra_faixa_gradiente14);
      }

      .st24 {
        fill: url(#Barra_faixa_gradiente10);
      }

      .st25 {
        fill: url(#Barra_faixa_gradiente11);
      }

      .st43 {
        fill: url(#Barra_faixa_gradiente2);
      }

      .st44 {
        fill: url(#Barra_faixa_gradiente3);
      }

      .st45 {
        fill: url(#Barra_faixa_gradiente1);
      }

      .st46 {
        fill: url(#Barra_faixa_gradiente5);
      }

      .st47 {
        fill: url(#Barra_faixa_gradiente6);
      }

      .st48 {
        fill: url(#Barra_faixa_gradiente4);
      }

      .st49 {
        clip-rule: evenodd;
        fill: none;
      }

      .st26 {
        fill: url(#linear-gradient);
      }

      .st50 {
        fill: url(#Barra_faixa_gradiente_2);
      }

      .st51 {
        fill: url(#Barra_faixa_gradiente12);
      }

      .st52 {
        fill: url(#Barra_faixa_gradiente13);
      }

      .st27 {
        fill: url(#linear-gradient2);
      }

      .st28 {
        fill: url(#linear-gradient4);
      }

      .st53 {
        fill: url(#Gradiente_sem_nome_1631);
      }

      .st54 {
        fill: url(#Gradiente_sem_nome_1245);
      }

      .st55 {
        fill: url(#Gradiente_sem_nome_1246);
      }

      .st56 {
        fill: url(#Gradiente_sem_nome_1247);
      }

      .st57 {
        clip-path: url(#clippath);
      }

      .st58 {
        fill: url(#Barra_faixa_gradiente);
      }
    </style>
    <linearGradient id="Barra_faixa_gradiente" data-name="Barra faixa gradiente" x1="82.42" y1="552.84" x2="618.46" y2="552.84" gradientUnits="userSpaceOnUse">
      <stop offset="0" stop-color="#325ea7"/>
      <stop offset=".5" stop-color="#1783d5"/>
      <stop offset="1" stop-color="#1798c7"/>
    </linearGradient>
    <linearGradient id="Barra_faixa_gradiente1" data-name="Barra faixa gradiente" x1="82.42" y1="578.89" x2="618.46" y2="578.89" xlink:href="#Barra_faixa_gradiente"/>
    <linearGradient id="Barra_faixa_gradiente2" data-name="Barra faixa gradiente" x1="82.42" x2="618.46" xlink:href="#Barra_faixa_gradiente"/>
    <linearGradient id="Barra_faixa_gradiente3" data-name="Barra faixa gradiente" x1="82.42" y1="571.28" x2="618.46" y2="571.28" xlink:href="#Barra_faixa_gradiente"/>
    <linearGradient id="Barra_faixa_gradiente4" data-name="Barra faixa gradiente" x1="82.42" y1="572.66" x2="618.46" y2="572.66" xlink:href="#Barra_faixa_gradiente"/>
    <linearGradient id="Barra_faixa_gradiente5" data-name="Barra faixa gradiente" x1="82.42" y1="572.66" x2="618.46" y2="572.66" xlink:href="#Barra_faixa_gradiente"/>
    <linearGradient id="Barra_faixa_gradiente6" data-name="Barra faixa gradiente" x1="82.42" y1="454.22" x2="618.46" y2="454.22" xlink:href="#Barra_faixa_gradiente"/>
    <linearGradient id="Gradiente_sem_nome_124" data-name="Gradiente sem nome 124" x1="78.66" y1="157.6" x2="317.12" y2="167.97" gradientUnits="userSpaceOnUse">
      <stop offset="0" stop-color="#6c9328"/>
      <stop offset="1" stop-color="#aed84a"/>
    </linearGradient>
    <linearGradient id="linear-gradient" x1="543.45" y1="221.31" x2="496.22" y2="289.18" gradientUnits="userSpaceOnUse">
      <stop offset="0" stop-color="#72ba51"/>
      <stop offset="1" stop-color="#8fc326"/>
    </linearGradient>
    <linearGradient id="Gradiente_sem_nome_109" data-name="Gradiente sem nome 109" x1="571.52" y1="230.18" x2="512.15" y2="134.35" gradientUnits="userSpaceOnUse">
      <stop offset="0" stop-color="#6fa324"/>
      <stop offset="1" stop-color="#8fc326"/>
    </linearGradient>
    <linearGradient id="Degradês_1" data-name="Degradês 1" x1="322.97" y1="162.88" x2="453.2" y2="157.87" gradientUnits="userSpaceOnUse">
      <stop offset="0" stop-color="#00b2e3"/>
      <stop offset=".11" stop-color="#03b2dc"/>
      <stop offset=".26" stop-color="#0eb3ca"/>
      <stop offset=".43" stop-color="#20b4ad"/>
      <stop offset=".63" stop-color="#39b684"/>
      <stop offset=".83" stop-color="#59b950"/>
      <stop offset="1" stop-color="#76bc21"/>
      <stop offset="1" stop-color="#76bc21"/>
    </linearGradient>
    <linearGradient id="Barra_faixa_gradiente7" data-name="Barra faixa gradiente" x1="336.81" y1="294.56" x2="544.37" y2="294.56" xlink:href="#Barra_faixa_gradiente"/>
    <linearGradient id="Barra_faixa_gradiente8" data-name="Barra faixa gradiente" x1="416.66" y1="204.5" x2="459.25" y2="300.13" xlink:href="#Barra_faixa_gradiente"/>
    <linearGradient id="Barra_faixa_gradiente9" data-name="Barra faixa gradiente" x1="450.78" y1="140.55" x2="504.63" y2="261.46" xlink:href="#Barra_faixa_gradiente"/>
    <linearGradient id="Barra_faixa_gradiente_2" data-name="Barra faixa gradiente 2" x1="337.87" y1="180.37" x2="447.71" y2="180.37" gradientUnits="userSpaceOnUse">
      <stop offset="0" stop-color="#016cb3"/>
      <stop offset=".5" stop-color="#00b3e1"/>
      <stop offset="1" stop-color="#00cbd3"/>
    </linearGradient>
    <linearGradient id="Gradiente_sem_nome_1241" data-name="Gradiente sem nome 124" x1="164.42" y1="215.39" x2="335.49" y2="215.39" xlink:href="#Gradiente_sem_nome_124"/>
    <linearGradient id="Gradiente_sem_nome_1242" data-name="Gradiente sem nome 124" x1="300.04" y1="140.04" x2="241.71" y2="245.25" xlink:href="#Gradiente_sem_nome_124"/>
    <linearGradient id="Barra_faixa_gradiente10" data-name="Barra faixa gradiente" x1="138.2" y1="299.96" x2="90.39" y2="289.51" xlink:href="#Barra_faixa_gradiente"/>
    <linearGradient id="Gradiente_sem_nome_1243" data-name="Gradiente sem nome 124" x1="101.47" y1="345.24" x2="153.81" y2="310.86" xlink:href="#Gradiente_sem_nome_124"/>
    <filter id="luminosity-noclip" x="-334.42" y="12.59" width="569.86" height="339.24" color-interpolation-filters="sRGB" filterUnits="userSpaceOnUse">
      <feFlood flood-color="#fff" result="bg"/>
      <feBlend in="SourceGraphic" in2="bg"/>
    </filter>
    <filter id="luminosity-noclip1" x="-334.42" y="-8542" width="122.48" height="32766" color-interpolation-filters="sRGB" filterUnits="userSpaceOnUse">
      <feFlood flood-color="#fff" result="bg"/>
      <feBlend in="SourceGraphic" in2="bg"/>
    </filter>
    <mask id="mask-2" x="-334.42" y="-8542" width="122.48" height="32766" maskUnits="userSpaceOnUse"/>
    <linearGradient id="linear-gradient1" x1="-1044.96" y1="749.3" x2="-1044.96" y2="593.88" gradientTransform="translate(583.03 702) scale(1 -1) skewX(16.39)" gradientUnits="userSpaceOnUse">
      <stop offset="0" stop-color="#fff"/>
      <stop offset="1" stop-color="#000"/>
    </linearGradient>
    <mask id="mask-1" x="-334.42" y="12.59" width="569.86" height="339.24" maskUnits="userSpaceOnUse">
      <g class="st31">
        <g class="st36">
          <polygon class="st17" points="-296.39 12.59 -211.95 12.59 -249.98 108.35 -334.42 108.35 -296.39 12.59"/>
        </g>
      </g>
    </mask>
    <linearGradient id="linear-gradient2" x1="-529.15" y1="533.18" x2="-529.15" y2="350.44" gradientTransform="translate(583.03 702) scale(1 -1) skewX(16.39)" gradientUnits="userSpaceOnUse">
      <stop offset="0" stop-color="#fff"/>
      <stop offset="1" stop-color="#fff"/>
    </linearGradient>
    <mask id="mask" x="111.49" y="239.24" width="123.95" height="112.6" maskUnits="userSpaceOnUse">
      <g id="id4">
        <g class="st42">
          <polygon class="st27" points="149.97 239.24 235.44 239.24 196.95 351.84 111.49 351.84 149.97 239.24"/>
        </g>
      </g>
    </mask>
    <linearGradient id="Barra_faixa_gradiente11" data-name="Barra faixa gradiente" x1="228.32" y1="257.04" x2="137.7" y2="345.58" xlink:href="#Barra_faixa_gradiente"/>
    <linearGradient id="Barra_faixa_gradiente12" data-name="Barra faixa gradiente" x1="74.86" y1="113.92" x2="232.2" y2="113.92" xlink:href="#Barra_faixa_gradiente"/>
    <linearGradient id="Degradês_2" data-name="Degradês 2" x1="77.81" y1="175.92" x2="318.02" y2="175.92" gradientUnits="userSpaceOnUse">
      <stop offset="0" stop-color="#002769"/>
      <stop offset=".05" stop-color="#004682"/>
      <stop offset=".11" stop-color="#006098"/>
      <stop offset=".16" stop-color="#0073a8"/>
      <stop offset=".22" stop-color="#007fb1"/>
      <stop offset=".28" stop-color="#0083b5"/>
      <stop offset=".67" stop-color="#52aa2b"/>
      <stop offset=".89" stop-color="#00a2cc"/>
      <stop offset="1" stop-color="#002a6b"/>
    </linearGradient>
    <linearGradient id="Gradiente_sem_nome_1091" data-name="Gradiente sem nome 109" x1="105.9" y1="72.9" x2="201.21" y2="117.43" xlink:href="#Gradiente_sem_nome_109"/>
    <linearGradient id="Gradiente_sem_nome_1092" data-name="Gradiente sem nome 109" x1="272.23" y1="167.18" x2="205.56" y2="86.98" xlink:href="#Gradiente_sem_nome_109"/>
    <linearGradient id="Gradiente_sem_nome_163" data-name="Gradiente sem nome 163" x1="258.67" y1="207.94" x2="336.79" y2="61.07" gradientUnits="userSpaceOnUse">
      <stop offset="0" stop-color="#016cb3"/>
      <stop offset=".29" stop-color="#00b3e1"/>
      <stop offset="1" stop-color="#fff"/>
    </linearGradient>
    <linearGradient id="Gradiente_sem_nome_177" data-name="Gradiente sem nome 177" x1="324.24" y1="122.41" x2="255.88" y2="208.73" gradientUnits="userSpaceOnUse">
      <stop offset="0" stop-color="#fff"/>
      <stop offset=".71" stop-color="#00b3e1" stop-opacity=".3"/>
      <stop offset="1" stop-color="#016cb3" stop-opacity="0"/>
    </linearGradient>
    <linearGradient id="Barra_faixa_gradiente_21" data-name="Barra faixa gradiente 2" x1="468.56" y1="219.75" x2="652.72" y2="219.75" xlink:href="#Barra_faixa_gradiente_2"/>
    <linearGradient id="Gradiente_sem_nome_1244" data-name="Gradiente sem nome 124" x1="684.08" y1="154.18" x2="596.06" y2="206.26" xlink:href="#Gradiente_sem_nome_124"/>
    <filter id="luminosity-noclip2" x="-7.78" y="-65.96" width="667.14" height="336.44" color-interpolation-filters="sRGB" filterUnits="userSpaceOnUse">
      <feFlood flood-color="#fff" result="bg"/>
      <feBlend in="SourceGraphic" in2="bg"/>
    </filter>
    <filter id="luminosity-noclip3" x="-7.78" y="-8542" width="189.78" height="32766" color-interpolation-filters="sRGB" filterUnits="userSpaceOnUse">
      <feFlood flood-color="#fff" result="bg"/>
      <feBlend in="SourceGraphic" in2="bg"/>
    </filter>
    <mask id="mask-5" x="-7.78" y="-8542" width="189.78" height="32766" maskUnits="userSpaceOnUse"/>
    <linearGradient id="linear-gradient3" x1="-928.61" y1="350.96" x2="-645.91" y2="814.61" xlink:href="#linear-gradient1"/>
    <mask id="mask-4" x="-7.78" y="-65.96" width="667.14" height="336.44" maskUnits="userSpaceOnUse">
      <g class="st33">
        <g class="st39">
          <polygon class="st19" points="33.96 -65.96 181.99 -65.96 140.25 39.16 -7.78 39.16 33.96 -65.96"/>
        </g>
      </g>
    </mask>
    <linearGradient id="linear-gradient4" x1="-405.27" y1="99" x2="-99.4" y2="600.67" xlink:href="#linear-gradient2"/>
    <mask id="mask-3" x="467.29" y="146.87" width="192.07" height="123.6" maskUnits="userSpaceOnUse">
      <g id="id2">
        <g class="st38">
          <polygon class="st28" points="509.54 146.87 659.36 146.87 617.11 270.48 467.29 270.48 509.54 146.87"/>
        </g>
      </g>
    </mask>
    <linearGradient id="Degradês_21" data-name="Degradês 2" x1="512.37" y1="241.94" x2="693.62" y2="162.78" xlink:href="#Degradês_2"/>
    <linearGradient id="Barra_faixa_gradiente13" data-name="Barra faixa gradiente" x1="507.63" y1="121.47" x2="423.25" y2="152.72" xlink:href="#Barra_faixa_gradiente"/>
    <linearGradient id="Gradiente_sem_nome_1245" data-name="Gradiente sem nome 124" x1="336.78" y1="205.68" x2="435.74" y2="132.77" xlink:href="#Gradiente_sem_nome_124"/>
    <linearGradient id="Degradês_22" data-name="Degradês 2" x1="316.07" y1="264.81" x2="558.78" y2="336.68" xlink:href="#Degradês_2"/>
    <linearGradient id="Barra_faixa_gradiente_22" data-name="Barra faixa gradiente 2" x1="396.36" y1="192.18" x2="507.56" y2="340.59" xlink:href="#Barra_faixa_gradiente_2"/>
    <linearGradient id="Gradiente_sem_nome_1631" data-name="Gradiente sem nome 163" x1="217.75" y1="290.17" x2="49" y2="326.63" xlink:href="#Gradiente_sem_nome_163"/>
    <clipPath id="clippath">
      <path class="st49" d="M249.98,202.71c-4.76,13.69-9.7,25.84-14.83,36.44,15.25-8.6,29.23-19.36,41.58-31.47,6.97-6.83,20.01-19.67,31.76-39.53,5.23-8.85,38.87-65.09,17.66-111.93-1.02-2.26-1.97-4.05-2.58-5.15,2.82,7.54,4.4,14.7,5.14,21.35,7.49,67.44-66.92,121.89-78.74,130.29Z"/>
    </clipPath>
    <filter id="luminosity-noclip4" x="-32.58" y="41.79" width="428.42" height="207.39" color-interpolation-filters="sRGB" filterUnits="userSpaceOnUse">
      <feFlood flood-color="#fff" result="bg"/>
      <feBlend in="SourceGraphic" in2="bg"/>
    </filter>
    <filter id="luminosity-noclip5" x="-32.58" y="-8542" width="88.29" height="32766" color-interpolation-filters="sRGB" filterUnits="userSpaceOnUse">
      <feFlood flood-color="#fff" result="bg"/>
      <feBlend in="SourceGraphic" in2="bg"/>
    </filter>
    <mask id="mask-7" x="-32.58" y="-8542" width="88.29" height="32766" maskUnits="userSpaceOnUse"/>
    <linearGradient id="linear-gradient5" x1="-814.27" y1="273.27" x2="-707.77" y2="564.25" xlink:href="#linear-gradient1"/>
    <mask id="mask-6" x="-32.58" y="41.79" width="428.42" height="207.39" maskUnits="userSpaceOnUse">
      <g class="st34">
        <g class="st40">
          <polygon class="st18" points="15.01 142.89 55.71 142.89 8.12 222.58 -32.58 222.58 15.01 142.89"/>
        </g>
      </g>
    </mask>
    <linearGradient id="Barra_faixa_gradiente14" data-name="Barra faixa gradiente" x1="213.7" y1="227.04" x2="315.79" y2="127.04" xlink:href="#Barra_faixa_gradiente"/>
    <linearGradient id="Barra_faixa_gradiente15" data-name="Barra faixa gradiente" x1="205.42" y1="135.47" x2="205.42" y2="135.47" xlink:href="#Barra_faixa_gradiente"/>
    <linearGradient id="Gradiente_sem_nome_1246" data-name="Gradiente sem nome 124" x1="43.56" y1="205.9" x2="121.16" y2="128.3" xlink:href="#Gradiente_sem_nome_124"/>
    <linearGradient id="Gradiente_sem_nome_1247" data-name="Gradiente sem nome 124" x1="-37.66" y1="196.87" x2="136.29" y2="105.21" xlink:href="#Gradiente_sem_nome_124"/>
  </defs>
  <g>
    <path class="st58" d="M180.84,547.34c-1.52,0-2.81.54-3.88,1.63-1.06,1.08-1.59,2.39-1.59,3.91s.53,2.81,1.59,3.87c1.06,1.06,2.35,1.59,3.88,1.59s2.82-.53,3.91-1.59c1.08-1.06,1.63-2.35,1.63-3.87s-.54-2.83-1.63-3.91c-1.08-1.08-2.39-1.63-3.91-1.63Z"/>
    <path class="st45" d="M480.41,560.69c-1.43,0-2.5.35-3.22,1.04-.72.69-1.07,1.59-1.07,2.7,0,.88.22,1.68.66,2.42.44.74,1.05,1.11,1.83,1.11.37,0,.81-.06,1.32-.17.51-.11.81-.29.9-.52,0,2.68-.55,5.86-1.66,9.55-1.11,3.69-2.57,6.87-4.39,9.55-1.82,2.68-3.79,4.01-5.92,4.01-1.57,0-2.35-.76-2.35-2.28,0-.51.12-1.34.35-2.49l4.98-23.53h-9.97l-4.98,23.53c-.23,1.11-.35,2.21-.35,3.32,0,2.72.75,4.76,2.25,6.12,1.5,1.36,3.59,2.04,6.26,2.04,4.38,0,8.05-1.66,11-4.98,2.95-3.32,5.14-7.35,6.57-12.08,1.43-4.73,2.15-9.17,2.15-13.32,0-1.75-.35-3.19-1.04-4.33-.69-1.13-1.8-1.7-3.32-1.7Z"/>
    <path class="st43" d="M493.49,548.96c-1.06,1.08-1.59,2.39-1.59,3.91s.53,2.81,1.59,3.87c1.06,1.06,2.35,1.59,3.87,1.59s2.83-.53,3.91-1.59c1.08-1.06,1.63-2.35,1.63-3.87s-.54-2.83-1.63-3.91c-1.08-1.08-2.39-1.63-3.91-1.63s-2.81.54-3.87,1.63Z"/>
    <path class="st44" d="M361.04,569.1c-.78.9-1.68,1.47-2.7,1.7-.42-6.23-3.35-9.34-8.79-9.34-4.38,0-7.98,1.4-10.8,4.19-2.81,2.79-4.84,6.09-6.09,9.9-1.25,3.81-1.87,7.3-1.87,10.48,0,.23.04.42.05.64-.39.79-.83,1.48-1.33,2.06-.95,1.11-2.07,1.66-3.36,1.66-1.02,0-1.74-.19-2.18-.59-.44-.39-.66-1.05-.66-1.97,0-.78.09-1.52.28-2.21l7.96-37.37-10.24,1.38-3.39,15.92v-.28c0-1.06-.46-1.91-1.38-2.56-.92-.64-2.33-.97-4.22-.97-3.74,0-6.96,1.3-9.65,3.91-2.7,2.61-4.73,5.79-6.09,9.55-1.36,3.76-2.04,7.35-2.04,10.76,0,.11.02.2.02.31-.54,1.09-1.07,1.99-1.61,2.63-.83.99-1.94,1.49-3.32,1.49-1.01,0-1.73-.25-2.15-.76-.41-.51-.62-1.22-.62-2.15,0-.78.15-1.86.45-3.22.3-1.36.63-2.76,1-4.19.6-2.35,1.06-4.35,1.38-5.99.32-1.64.48-3.12.48-4.46,0-2.63-.69-4.59-2.08-5.88-1.38-1.29-3.25-1.94-5.61-1.94-3.09,0-5.79,1.29-8.1,3.88l.76-3.6h-9.96l-4.72,22.25c-.55,1.92-1.3,3.48-2.24,4.67-.95,1.2-2.07,1.8-3.36,1.8-1.89,0-2.84-.99-2.84-2.98,0-.78.09-1.52.28-2.21l4.98-23.53h-9.96l-.76,3.67v-.48c0-1.06-.46-1.91-1.38-2.56-.92-.64-2.33-.97-4.22-.97-3.74,0-6.96,1.3-9.65,3.91-2.7,2.61-4.73,5.79-6.09,9.55-1.36,3.76-2.04,7.35-2.04,10.76,0,.21.03.38.04.58-.4.84-.86,1.58-1.38,2.19-.95,1.11-2.07,1.66-3.36,1.66-1.02,0-1.74-.19-2.18-.59-.44-.39-.66-1.05-.66-1.97,0-.78.09-1.52.28-2.21l7.96-37.37-10.24,1.38-3.39,15.92v-.28c0-1.06-.46-1.91-1.38-2.56-.92-.64-2.33-.97-4.22-.97-3.74,0-6.96,1.3-9.65,3.91-2.7,2.61-4.73,5.79-6.09,9.55-1.36,3.76-2.04,7.35-2.04,10.76,0,.18.03.33.03.51-.44.84-.98,1.59-1.62,2.23-1.15,1.13-2.4,1.7-3.74,1.7-1.02,0-1.74-.19-2.18-.59-.44-.39-.66-1.05-.66-1.97,0-.78.09-1.52.28-2.21l4.98-23.53h-9.96l-4.71,22.21s0,0,0,0c-.55,1.84-1.3,3.32-2.25,4.42-.95,1.11-2.07,1.66-3.36,1.66-1.02,0-1.74-.19-2.18-.59-.44-.39-.66-1.05-.66-1.97,0-.78.09-1.52.28-2.21l4.98-23.53h-9.97l-4.71,22.21c-.55,1.89-1.29,3.38-2.21,4.46-.92,1.08-2.03,1.63-3.32,1.63-1.38,0-2.08-.94-2.08-2.84,0-.6.07-1.24.21-1.94l4.98-23.53h-9.97l-4.71,22.21c-.02.08-.03.15-.04.23-1.61,2.06-3.51,3.68-5.7,4.82-2.31,1.2-4.82,1.8-7.54,1.8-3.14,0-5.31-.92-6.51-2.77-1.2-1.84-1.8-4.52-1.8-8.03,0-4.71.68-9.59,2.04-14.67,1.36-5.07,3.15-9.28,5.36-12.63,2.21-3.34,4.54-5.02,6.99-5.02,1.48,0,2.55.39,3.22,1.18.67.78,1,1.8,1,3.04,0,1.34-.32,2.63-.97,3.88-.65,1.25-1.38,2.08-2.21,2.49.97,1.2,2.28,1.8,3.94,1.8s2.88-.56,3.67-1.7c.78-1.13,1.18-2.69,1.18-4.67,0-3.14-1.06-5.47-3.18-6.99-2.12-1.52-4.91-2.28-8.37-2.28-5.58,0-10.18,2-13.81,5.98-3.62,3.99-6.25,8.78-7.89,14.36-1.64,5.58-2.46,10.8-2.46,15.64,0,6.09,1.22,10.45,3.67,13.08,2.45,2.63,6.27,3.94,11.49,3.94,2.31,0,4.75-.45,7.34-1.35,2.58-.9,5.01-2.32,7.27-4.26,1.05-.9,1.98-1.92,2.79-3.04.06,2.58.72,4.56,2.02,5.88,1.36,1.38,3.15,2.08,5.36,2.08,1.8,0,3.56-.46,5.29-1.38,1.73-.92,3.38-2.65,4.95-5.19.23,2.17.93,3.81,2.11,4.91,1.18,1.11,2.76,1.66,4.74,1.66,2.54,0,5.06-.89,7.58-2.67,1.11-.78,2.13-1.9,3.09-3.3.29,1.62.88,2.93,1.83,3.89,1.36,1.38,3.15,2.08,5.36,2.08,2.63,0,5.28-.89,7.96-2.67,1.25-.83,2.38-2.02,3.42-3.54.44,1.43,1.1,2.6,1.98,3.5,1.75,1.8,3.94,2.7,6.57,2.7,2.26,0,4.23-.6,5.92-1.8,1.68-1.2,3.12-2.72,4.32-4.57.28,1.94,1,3.41,2.18,4.43,1.18,1.01,2.71,1.52,4.6,1.52,4.44,0,8-2,10.72-5.91.44,1.48,1.1,2.7,2.01,3.63,1.75,1.8,3.94,2.7,6.57,2.7,2.26,0,4.21-.59,5.85-1.77,1.64-1.18,3.12-2.71,4.46-4.6.23,2.08.93,3.66,2.11,4.74,1.18,1.08,2.73,1.63,4.67,1.63,2.54,0,5.06-.89,7.58-2.67.54-.38,1.06-.86,1.57-1.39l-.77,3.64h9.96l4.71-22.21c.55-1.89,1.29-3.43,2.21-4.6.92-1.18,1.98-1.77,3.18-1.77,1.66,0,2.49,1.18,2.49,3.53,0,.97-.16,2.24-.48,3.81-.32,1.57-.67,3.16-1.04,4.78-.09.32-.27,1.06-.52,2.21-.25,1.15-.5,2.34-.73,3.56-.23,1.22-.35,2.32-.35,3.29,0,2.21.66,4.07,1.97,5.57s3.38,2.25,6.19,2.25c2.4,0,4.72-.87,6.95-2.6,1.01-.78,1.95-1.91,2.85-3.36.44,1.31,1.06,2.41,1.89,3.26,1.75,1.8,3.94,2.7,6.57,2.7,2.26,0,4.23-.6,5.92-1.8,1.68-1.2,3.12-2.72,4.33-4.57.28,1.94,1,3.41,2.18,4.43,1.18,1.01,2.71,1.52,4.6,1.52,4.45,0,8.01-2.01,10.73-5.93.5,1.46,1.24,2.66,2.28,3.57,1.98,1.75,4.68,2.63,8.1,2.63,2.91,0,5.56-.89,7.96-2.67,2.4-1.77,4.35-4.3,5.85-7.58,1.5-3.27,2.39-7.08,2.67-11.42,1.57-.88,2.84-2.02,3.81-3.42.97-1.41,2.08-3.36,3.32-5.85h-2.21c-.69,1.15-1.43,2.18-2.21,3.08ZM206.24,584.29v.35c-.42,1.8-1.19,3.21-2.32,4.22-1.13,1.01-2.25,1.52-3.36,1.52-.97,0-1.79-.32-2.46-.97-.67-.65-1-2.12-1-4.43s.42-4.97,1.25-7.99c.83-3.02,1.98-5.61,3.46-7.75,1.48-2.15,3.14-3.22,4.98-3.22,1.48,0,2.42.81,2.84,2.42l-3.39,15.85ZM242.64,584.29c-.41,1.89-1.19,3.38-2.32,4.46-1.13,1.08-2.27,1.63-3.43,1.63-.97,0-1.79-.32-2.46-.97-.67-.65-1-2.12-1-4.43s.42-4.97,1.25-7.99c.83-3.02,1.98-5.61,3.46-7.75,1.48-2.15,3.14-3.22,4.98-3.22.97,0,1.68.29,2.15.86.46.58.69,1.17.69,1.76l-3.32,15.64ZM313.91,584.29v.35c-.42,1.8-1.19,3.21-2.32,4.22-1.13,1.01-2.25,1.52-3.36,1.52-.97,0-1.79-.32-2.46-.97-.67-.65-1-2.12-1-4.43s.42-4.97,1.25-7.99c.83-3.02,1.98-5.61,3.46-7.75,1.48-2.15,3.14-3.22,4.98-3.22,1.48,0,2.42.81,2.84,2.42l-3.39,15.85ZM352.46,576.33c-.55,4.06-1.57,7.47-3.05,10.24-1.48,2.77-3.07,4.15-4.77,4.15-1.34,0-2.26-.38-2.77-1.14-.51-.76-.76-2.25-.76-4.46,0-2.35.43-5.09,1.28-8.2.85-3.11,1.97-5.77,3.36-7.96,1.38-2.19,2.84-3.29,4.36-3.29.88,0,1.51.29,1.9.86.39.58.63,1.6.73,3.08-1.29.6-1.94,1.8-1.94,3.6,0,1.66.55,2.7,1.66,3.11Z"/>
    <path class="st48" d="M434.53,561.45c-4.34,0-7.91,1.4-10.73,4.19-2.81,2.79-4.84,6.1-6.09,9.93-1.25,3.83-1.87,7.34-1.87,10.52,0,.21.03.38.04.58-.39.78-.83,1.47-1.32,2.05-.95,1.11-2.07,1.66-3.36,1.66-1.02,0-1.74-.19-2.18-.59-.44-.39-.66-1.05-.66-1.97,0-.78.09-1.52.28-2.21l7.96-37.37-10.24,1.38-3.39,15.92v-.28c0-1.06-.46-1.91-1.38-2.56-.92-.64-2.33-.97-4.22-.97-3.74,0-6.95,1.3-9.65,3.91-2.7,2.61-4.73,5.79-6.09,9.55-1.36,3.76-2.04,7.35-2.04,10.76,0,3.83.88,6.64,2.63,8.44,1.75,1.8,3.94,2.7,6.57,2.7,2.26,0,4.23-.6,5.92-1.8,1.68-1.2,3.13-2.72,4.32-4.57.28,1.94,1,3.41,2.18,4.43,1.18,1.01,2.71,1.52,4.6,1.52,4.43,0,7.98-1.99,10.7-5.87.47,1.48,1.19,2.7,2.18,3.62,1.89,1.78,4.52,2.67,7.89,2.67,6.74,0,10.73-3.41,11.97-10.24-1.2,1.06-2.54,1.94-4.01,2.63-1.48.69-2.86,1.04-4.15,1.04-2.86,0-4.29-1.91-4.29-5.74,0-.37.05-1.06.14-2.08,2.77-.18,5.37-.93,7.82-2.25,2.44-1.31,4.4-3.05,5.88-5.22,1.48-2.17,2.21-4.54,2.21-7.13,0-4.43-2.54-6.64-7.61-6.64ZM398.96,584.29v.35c-.42,1.8-1.19,3.21-2.32,4.22-1.13,1.01-2.25,1.52-3.36,1.52-.97,0-1.79-.32-2.46-.97-.67-.65-1-2.12-1-4.43s.41-4.97,1.25-7.99c.83-3.02,1.98-5.61,3.46-7.75,1.48-2.15,3.14-3.22,4.98-3.22,1.48,0,2.42.81,2.84,2.42l-3.39,15.85ZM435.39,573.39c-.95,1.73-2.19,3.15-3.74,4.26-1.55,1.11-3.19,1.69-4.95,1.73.78-3.64,1.97-6.93,3.56-9.86,1.59-2.93,3.19-4.39,4.81-4.39,1.15,0,1.73.95,1.73,2.84s-.47,3.7-1.42,5.43Z"/>
    <path class="st46" d="M598.39,579.1c-.55-6.87-.95-13.26-1.18-19.17l-10.24,1.38c-1.2,3.83-2.47,7.39-3.81,10.69-1.34,3.3-2.91,6.56-4.71,9.79-1.02.51-1.88,1.33-2.6,2.46-.71,1.13-1.07,2.46-1.07,3.98,0,.22.03.44.04.65-.03.03-.05.07-.08.11-.95,1.2-2.06,1.8-3.36,1.8-1.89,0-2.84-.99-2.84-2.98,0-.78.09-1.52.28-2.21l4.98-23.53h-9.97l-.76,3.67v-.48c0-1.06-.46-1.91-1.38-2.56-.92-.64-2.33-.97-4.22-.97-3.74,0-6.95,1.3-9.65,3.91-2.7,2.61-4.73,5.79-6.09,9.55-1.36,3.76-2.04,7.35-2.04,10.76,0,.21.03.38.04.58-.4.84-.86,1.58-1.39,2.19-.95,1.11-2.07,1.66-3.36,1.66-1.02,0-1.74-.19-2.18-.59-.44-.39-.66-1.05-.66-1.97,0-.78.09-1.52.28-2.21l7.96-37.37-10.24,1.38-3.39,15.92v-.28c0-1.06-.46-1.91-1.38-2.56-.92-.64-2.33-.97-4.22-.97-3.74,0-6.95,1.3-9.65,3.91-2.7,2.61-4.73,5.79-6.09,9.55-1.36,3.76-2.04,7.35-2.04,10.76,0,.18.03.33.03.51-.44.84-.98,1.59-1.62,2.23-1.15,1.13-2.4,1.7-3.74,1.7-1.01,0-1.74-.19-2.18-.59-.44-.39-.66-1.05-.66-1.97,0-.78.09-1.52.28-2.21l4.98-23.53h-9.97l-4.71,22.21c-.37,1.85-.55,3.35-.55,4.5,0,2.77.68,4.84,2.04,6.23,1.36,1.38,3.15,2.08,5.36,2.08,2.63,0,5.28-.89,7.96-2.67,1.25-.83,2.38-2.02,3.42-3.54.44,1.43,1.1,2.6,1.98,3.5,1.75,1.8,3.94,2.7,6.57,2.7,2.26,0,4.23-.6,5.92-1.8,1.68-1.2,3.12-2.72,4.32-4.57.28,1.94,1,3.41,2.18,4.43,1.18,1.01,2.71,1.52,4.6,1.52,4.44,0,8.01-2,10.72-5.91.44,1.48,1.1,2.7,2.01,3.63,1.75,1.8,3.94,2.7,6.57,2.7,2.26,0,4.21-.59,5.85-1.77,1.64-1.18,3.13-2.71,4.46-4.6.23,2.08.93,3.66,2.11,4.74,1.18,1.08,2.73,1.63,4.67,1.63,2.54,0,5.06-.89,7.58-2.67.78-.55,1.52-1.28,2.22-2.14.03.07.06.13.09.2.74,1.36,1.87,2.47,3.39,3.32,1.52.85,3.39,1.28,5.61,1.28s4.3-.39,6.4-1.18c2.1-.78,3.86-2.08,5.29-3.88,1.43-1.8,2.15-4.1,2.15-6.92,0-1.25-.12-3.25-.35-6.02ZM522.76,584.29v.35c-.42,1.8-1.19,3.21-2.32,4.22-1.13,1.01-2.25,1.52-3.36,1.52-.97,0-1.79-.32-2.46-.97-.67-.65-1-2.12-1-4.43s.41-4.97,1.25-7.99c.83-3.02,1.98-5.61,3.46-7.75,1.48-2.15,3.14-3.22,4.98-3.22,1.48,0,2.42.81,2.84,2.42l-3.39,15.85ZM559.16,584.29c-.42,1.89-1.19,3.38-2.32,4.46-1.13,1.08-2.27,1.63-3.43,1.63-.97,0-1.79-.32-2.46-.97-.67-.65-1-2.12-1-4.43s.42-4.97,1.25-7.99c.83-3.02,1.98-5.61,3.46-7.75,1.48-2.15,3.14-3.22,4.98-3.22.97,0,1.68.29,2.15.86.46.58.69,1.17.69,1.76l-3.32,15.64ZM586.97,590.1c-1.15,1.01-2.58,1.52-4.29,1.52-1.48,0-2.55-.39-3.22-1.18-.52-.61-.83-1.49-.95-2.63.09-.19.18-.41.26-.61.34.31.85.47,1.55.47.88,0,1.6-.35,2.18-1.04.58-.69.86-1.48.86-2.35,0-1.06-.53-1.87-1.59-2.42,2.63-5.07,4.5-9.43,5.61-13.08.14,1.8.44,5.33.9,10.59.28,2.49.41,4.43.41,5.81,0,2.26-.58,3.9-1.73,4.91Z"/>
    <path class="st47" d="M138.81,530.03c9.22,0,17.17-2.4,23.86-7.2,6.68-4.8,12.75-11.05,18.21-18.77.94,8.47,3.81,14.92,8.61,19.34,4.8,4.42,11.15,6.63,19.06,6.63,10.35,0,20.66-3.62,30.92-10.87,2.2-1.55,4.32-3.43,6.37-5.59l-3.13,14.76h40.66l19.2-90.63c2.26-7.71,5.27-13.98,9.03-18.77,3.76-4.8,8.09-7.2,12.99-7.2,6.78,0,10.16,4.8,10.16,14.4,0,3.95-.66,9.13-1.98,15.53-1.32,6.4-2.73,12.9-4.24,19.48-.38,1.32-1.08,4.33-2.12,9.04-1.04,4.71-2.03,9.56-2.97,14.54-.94,4.99-1.41,9.46-1.41,13.41,0,9.04,2.68,16.62,8.05,22.73,5.36,6.12,13.79,9.18,25.27,9.18,9.78,0,19.24-3.53,28.37-10.59,4.12-3.19,8.02-7.78,11.7-13.74,2.02,5.27,4.92,9.64,8.77,13.04,8.09,7.16,19.1,10.73,33.03,10.73,11.67,0,22.35-3.48,32.05-10.45,9.69-6.96,17.65-16.94,23.86-29.93,6.21-12.99,9.88-28.14,11.01-45.46,18.26-5.46,34.07-18.44,47.43-38.96,1.13,18.82,2.63,37.27,4.52,55.34,1.13,8.66,1.69,15.81,1.69,21.46,0,9.79-1.37,16.61-4.09,20.47-2.73,3.86-7.3,5.79-13.69,5.79-5.46,0-9.56-1.83-12.28-5.51-2.73-3.67-4.09-8.89-4.09-15.67,1.13,2.45,3.67,3.67,7.62,3.67s6.96-1.27,9.6-3.81c2.63-2.54,3.95-5.51,3.95-8.89,0-7.91-4.9-11.86-14.68-11.86-5.27,0-9.98,2.5-14.12,7.48-4.14,4.99-6.21,11.43-6.21,19.34,0,10.73,2.77,19.67,8.33,26.82,5.55,7.16,15.85,10.73,30.92,10.73,13.55,0,25.22-3.91,35.01-11.72,9.78-7.81,14.68-20.19,14.68-37.13,0-5.08-.47-13.27-1.41-24.56-2.26-28.04-3.86-54.11-4.8-78.21l-41.79,5.65c-16.76,29.18-32.09,44.14-46.02,44.89-.19-29.55-12.24-44.33-36.14-44.33-17.88,0-32.57,5.7-44.04,17.08-11.48,11.39-19.76,24.85-24.85,40.37-5.08,15.53-7.62,29.79-7.62,42.77,0,.59.05,1.13.06,1.71-2.09,4.18-4.18,7.52-6.27,10.01-3.39,4.05-7.91,6.07-13.55,6.07-4.14,0-7.06-1.03-8.75-3.11-1.69-2.07-2.54-4.99-2.54-8.75,0-3.2.61-7.57,1.84-13.13,1.22-5.55,2.58-11.25,4.09-17.08,2.44-9.6,4.33-17.74,5.65-24.42,1.31-6.68,1.98-12.75,1.98-18.21,0-10.73-2.82-18.73-8.47-24-5.65-5.27-13.27-7.9-22.87-7.9-12.61,0-23.62,5.27-33.03,15.81l3.11-14.68h-40.66l-19.26,90.85c-2.25,7.8-5.29,14.14-9.11,18.99-3.86,4.9-8.43,7.34-13.69,7.34-7.72,0-11.58-4.05-11.58-12.14,0-3.2.38-6.21,1.13-9.03l20.33-96h-40.66l-3.11,14.96v-1.98c0-4.33-1.88-7.81-5.65-10.45-3.77-2.63-9.51-3.95-17.22-3.95-15.25,0-28.38,5.32-39.39,15.95-11.01,10.64-19.3,23.62-24.85,38.96-5.55,15.34-8.33,29.98-8.33,43.9,0,15.63,3.58,27.1,10.73,34.44,7.15,7.34,16.09,11.01,26.82,11.01ZM436.51,447.94c3.37-12.3,7.79-22.78,13.26-31.43,5.47-8.65,11.21-12.98,17.22-12.98,3.46,0,5.97,1.19,7.52,3.55,1.55,2.37,2.5,6.47,2.87,12.3-5.1,2.37-7.65,7.11-7.65,14.21,0,6.56,2.19,10.66,6.56,12.3-2.19,16.04-6.2,29.48-12.03,40.32-5.83,10.84-12.12,16.26-18.86,16.26-5.29,0-8.93-1.5-10.93-4.51-2.01-3.01-3.01-8.88-3.01-17.63,0-9.29,1.68-20.09,5.06-32.39ZM154.57,448.21c3.28-11.93,7.83-22.14,13.67-30.61,5.83-8.47,12.39-12.71,19.68-12.71,3.83,0,6.65,1.14,8.47,3.42,1.82,2.28,2.73,4.6,2.73,6.97l-13.12,61.77c-1.64,7.47-4.69,13.35-9.16,17.63-4.47,4.28-8.98,6.42-13.53,6.42-3.83,0-7.06-1.27-9.7-3.83-2.64-2.55-3.96-8.38-3.96-17.49s1.64-19.63,4.92-31.57Z"/>
  </g>
  <g id="Logo_FAHZ">
    <g>
      <path class="st30" d="M162.69,661.04c3.95-9.8,2.71-21.37-4.26-30.3-6.97-8.92-17.9-12.92-28.37-11.46l6.13-4.14c10.56.01,20.83,5.5,26.49,15.3,5.66,9.8,5.28,21.44,0,30.59"/>
      <path class="st35" d="M131.83,615.15c-5.15.72-10.18,2.76-14.57,6.19-13.31,10.4-15.68,29.63-5.28,42.94l-6.64-3.24c-8.45-14.63-3.43-33.34,11.2-41.79,4.83-2.79,10.1-4.11,15.29-4.1"/>
      <path class="st32" d="M107.52,665.4c10.4,13.31,29.63,15.67,42.94,5.27,4.39-3.43,7.59-7.82,9.53-12.64l.51,7.37c-2.59,4.51-6.37,8.41-11.2,11.19-14.63,8.45-33.34,3.43-41.79-11.2"/>
      <path class="st30" d="M155.16,639.78c-2.95-6.93-9.41-12.14-17.42-13.12-8.01-.98-15.54,2.51-20.08,8.52l1.01-5.17c5.33-5.32,13.27-7.73,21.07-5.64,7.8,2.09,13.47,8.15,15.42,15.42"/>
      <path class="st35" d="M116.47,632.2c-2.23,2.96-3.74,6.52-4.23,10.47-1.47,11.96,7.03,22.84,18.99,24.31l-4.98,1.71c-11.63-3.12-18.54-15.07-15.42-26.71,1.03-3.84,3.02-7.16,5.64-9.78"/>
      <path class="st32" d="M129.54,669.78c11.95,1.47,22.83-7.03,24.3-18.99.49-3.94-.12-7.77-1.57-11.18l3.98,3.46c.96,3.58,1.03,7.45,0,11.29-3.12,11.63-15.08,18.54-26.71,15.42"/>
      <path class="st30" d="M140.39,633.31c-4.69-1.89-10.23-1.3-14.5,2.04-4.27,3.34-6.19,8.57-5.49,13.58l-1.98-2.94c0-5.05,2.63-9.97,7.32-12.68,4.69-2.71,10.26-2.53,14.64,0"/>
      <path class="st35" d="M118.42,648.08c.34,2.46,1.32,4.87,2.96,6.98,4.98,6.37,14.18,7.5,20.55,2.52l-1.55,3.18c-7,4.04-15.96,1.64-20-5.36-1.33-2.31-1.97-4.83-1.96-7.32"/>
      <path class="st32" d="M142.47,659.71c6.37-4.98,7.5-14.18,2.52-20.55-1.64-2.1-3.74-3.63-6.05-4.56l3.53-.25c2.16,1.24,4.02,3.05,5.36,5.36,4.04,7.01,1.64,15.96-5.36,20"/>
      <path class="st35" d="M193.69,637.7c-.13-.65-.24-1.28-.34-1.89-.1-.61-.18-1.23-.24-1.85h-7.82v10.15h6.46c.16-1.1.36-2.1.58-3.01h3.3v10.05h-3.3c-.23-.91-.42-1.91-.58-3.01h-6.46v10.54c.74.07,1.47.15,2.18.24.71.1,1.39.23,2.04.39v3.2h-13.64v-3.2c.65-.16,1.33-.29,2.04-.39.71-.1,1.44-.18,2.18-.24v-25.1c-.75-.06-1.47-.15-2.18-.24-.71-.1-1.39-.23-2.04-.39v-3.2h21.65v7.96h-3.84Z"/>
      <path class="st35" d="M227.29,662.17c-1.26.16-2.7.28-4.32.34-1.62.06-3.16.06-4.61,0,0-.68.02-1.46.07-2.33.05-.87.14-1.67.27-2.38l-.1-.05c-.75,1.55-1.82,2.82-3.23,3.79-1.41.97-3.13,1.46-5.17,1.46-1.36,0-2.5-.2-3.42-.61-.92-.4-1.67-.95-2.23-1.65-.57-.7-.96-1.51-1.19-2.45-.23-.94-.34-1.94-.34-3.01v-12.87c-.58-.1-1.24-.19-1.97-.27-.73-.08-1.42-.15-2.06-.22v-3.2c1.26-.16,2.72-.28,4.36-.34,1.64-.06,3.27-.06,4.87,0v15.54c0,1.52.25,2.69.75,3.52.5.83,1.44,1.24,2.83,1.24.9,0,1.74-.23,2.51-.68.77-.45,1.43-1.07,1.98-1.85.55-.78.98-1.69,1.3-2.74.32-1.05.48-2.18.48-3.37v-7.67c-.52-.06-1.11-.14-1.77-.22-.66-.08-1.32-.15-1.97-.22v-3.2c1.29-.16,2.73-.28,4.3-.34,1.57-.06,3.12-.06,4.64,0v20.1c.58.1,1.24.19,1.97.27.73.08,1.42.15,2.06.22v3.2Z"/>
      <path class="st35" d="M247.63,646.97c0-1.52-.25-2.69-.75-3.52-.5-.83-1.44-1.24-2.83-1.24-.9,0-1.73.23-2.49.68-.76.45-1.42,1.07-1.98,1.85-.56.78-1.01,1.69-1.33,2.74-.32,1.05-.48,2.18-.48,3.37v7.82c.65.07,1.29.14,1.94.22.65.08,1.25.2,1.8.36v3.25h-13.16v-3.2c.65-.16,1.33-.29,2.04-.39.71-.1,1.44-.18,2.18-.24v-16.27c-.58-.1-1.25-.19-2.02-.27-.76-.08-1.5-.15-2.21-.22v-3.2c1.36-.16,2.86-.27,4.5-.34,1.64-.06,3.22-.06,4.72,0,0,.65-.03,1.42-.1,2.33-.07.91-.16,1.7-.29,2.38l.1.05c.71-1.55,1.77-2.82,3.17-3.79,1.4-.97,3.12-1.46,5.16-1.46,1.35,0,2.5.2,3.44.61.94.41,1.68.96,2.23,1.65.55.7.94,1.51,1.19,2.45.24.94.36,1.94.36,3.01v13.06c.71.07,1.41.15,2.09.24.68.1,1.33.23,1.94.39v3.2h-9.23v-15.54Z"/>
      <path class="st35" d="M283.81,662.12c-1.26.16-2.71.28-4.34.34-1.63.06-3.18.06-4.65,0,0-.65.02-1.39.07-2.23.05-.84.14-1.59.27-2.23h-.1c-.65,1.49-1.65,2.69-3,3.62-1.36.92-2.97,1.38-4.84,1.38-2.97,0-5.19-1.02-6.66-3.06-1.47-2.04-2.2-4.81-2.2-8.3,0-2.07.29-3.95.87-5.63.58-1.68,1.41-3.11,2.49-4.3,1.08-1.18,2.4-2.1,3.97-2.74,1.57-.65,3.32-.97,5.25-.97.58,0,1.17.02,1.77.05.6.03,1.22.08,1.86.15v-7.09c-.58-.1-1.26-.19-2.02-.27-.76-.08-1.5-.15-2.21-.22v-3.2c1.36-.16,2.87-.27,4.53-.34,1.66-.06,3.29-.06,4.89,0v31.37c.58.1,1.24.19,1.97.27.73.08,1.42.15,2.06.22v3.2ZM274.58,642.55c-1.33-.29-2.61-.44-3.84-.44-2.07,0-3.75.69-5.03,2.08-1.28,1.39-1.92,3.7-1.92,6.92,0,2.42.39,4.29,1.16,5.59.78,1.31,1.99,1.96,3.64,1.96.97,0,1.82-.26,2.55-.77.73-.52,1.35-1.19,1.87-2.01.52-.82.91-1.75,1.17-2.78.26-1.03.39-2.07.39-3.1v-7.46Z"/>
      <path class="st35" d="M309.1,662.17c-1.26.16-2.7.28-4.32.34-1.62.06-3.14.06-4.56,0,0-.78.02-1.55.05-2.33.03-.78.1-1.49.19-2.14l-.05-.05c-.58,1.46-1.58,2.65-2.99,3.59-1.41.94-3.08,1.41-5.03,1.41-2.07,0-3.71-.54-4.93-1.63-1.21-1.09-1.82-2.6-1.82-4.54,0-1.39.33-2.62,1-3.69.66-1.07,1.62-1.97,2.86-2.69,1.25-.73,2.74-1.29,4.49-1.68,1.75-.39,3.71-.58,5.88-.58v-1.7c0-1.52-.34-2.67-1.02-3.45s-1.94-1.17-3.79-1.17c-1.39,0-2.72.18-3.98.53-.07.55-.15,1.13-.24,1.72-.1.6-.19,1.22-.29,1.87h-3.25v-6.85c1.2-.39,2.5-.7,3.91-.95,1.41-.24,2.89-.36,4.44-.36,1.85,0,3.37.19,4.59.58,1.21.39,2.18.94,2.89,1.65.71.71,1.21,1.58,1.51,2.6.29,1.02.44,2.15.44,3.37v12.43c.58.1,1.24.19,1.97.27.73.08,1.42.15,2.06.22v3.2ZM299.88,651.63c-1.75,0-3.21.11-4.39.34-1.18.23-2.13.54-2.84.95-.71.41-1.22.87-1.53,1.38-.31.52-.46,1.07-.46,1.65,0,.94.29,1.68.87,2.21.58.53,1.39.8,2.43.8.87,0,1.67-.19,2.4-.58.73-.39,1.35-.91,1.87-1.55.52-.65.92-1.38,1.21-2.18.29-.81.44-1.65.44-2.52v-.49Z"/>
      <path class="st35" d="M329.01,661.68c-.94.32-1.99.61-3.16.85-1.17.24-2.46.36-3.88.36-1.62,0-3.12-.2-4.5-.61-1.38-.4-2.57-1.07-3.56-1.99-1-.92-1.78-2.13-2.35-3.62-.57-1.49-.86-3.3-.86-5.44,0-1.91.25-3.67.76-5.29.51-1.62,1.27-3.02,2.3-4.2,1.03-1.18,2.32-2.1,3.88-2.77,1.56-.66,3.39-1,5.49-1,.94,0,1.92.07,2.94.22,1.02.15,1.95.35,2.79.61v7.38h-3.3c-.13-.65-.24-1.28-.32-1.89-.08-.61-.15-1.2-.22-1.75-.36-.1-.76-.18-1.21-.24-.45-.06-.91-.1-1.36-.1-2.01,0-3.56.75-4.66,2.23-1.1,1.49-1.65,3.5-1.65,6.02,0,1.17.11,2.24.34,3.23.23.99.61,1.83,1.14,2.52.53.7,1.25,1.24,2.14,1.63.89.39,2,.58,3.33.58.94,0,1.9-.11,2.89-.34.99-.23,1.89-.52,2.69-.87l.34,4.47Z"/>
      <path class="st35" d="M323.47,662.29c.39.81.65,1.63.78,2.45.13.82.04,1.64-.27,2.45-.31.81-.87,1.59-1.68,2.36-.81.76-1.93,1.48-3.35,2.16l-2.38-2.04c1.55-1.1,2.47-2.27,2.74-3.5.27-1.23.04-2.52-.7-3.88h4.86Z"/>
      <path class="st35" d="M354.84,662.17c-1.26.16-2.7.28-4.32.34-1.62.06-3.14.06-4.56,0,0-.78.02-1.55.05-2.33.03-.78.1-1.49.19-2.14l-.05-.05c-.58,1.46-1.58,2.65-2.99,3.59-1.41.94-3.08,1.41-5.03,1.41-2.07,0-3.71-.54-4.93-1.63-1.21-1.09-1.82-2.6-1.82-4.54,0-1.39.33-2.62,1-3.69.66-1.07,1.62-1.97,2.86-2.69,1.25-.73,2.74-1.29,4.49-1.68,1.75-.39,3.71-.58,5.88-.58v-1.7c0-1.52-.34-2.67-1.02-3.45-.68-.78-1.94-1.17-3.79-1.17-1.39,0-2.72.18-3.98.53-.06.55-.15,1.13-.24,1.72-.1.6-.19,1.22-.29,1.87h-3.25v-6.85c1.2-.39,2.5-.7,3.91-.95,1.41-.24,2.89-.36,4.44-.36,1.85,0,3.37.19,4.59.58,1.21.39,2.18.94,2.89,1.65.71.71,1.21,1.58,1.51,2.6.29,1.02.44,2.15.44,3.37v12.43c.58.1,1.24.19,1.97.27.73.08,1.42.15,2.06.22v3.2ZM349.98,632.07c-.48.49-1.17.94-2.06,1.36-.89.42-1.79.63-2.69.63s-1.66-.12-2.26-.36c-.6-.24-1.16-.51-1.67-.8-.52-.29-1.04-.56-1.55-.8-.52-.24-1.13-.36-1.85-.36-.65,0-1.24.15-1.77.46-.53.31-1.03.69-1.48,1.14l-1.12-3.5c.65-.58,1.38-1.07,2.18-1.46.81-.39,1.68-.58,2.62-.58.84,0,1.56.12,2.16.36.6.24,1.16.52,1.68.83.52.31,1.04.58,1.55.82.52.24,1.12.36,1.8.36s1.3-.15,1.87-.46c.57-.31,1.08-.67,1.53-1.09l1.07,3.45ZM345.61,651.63c-1.75,0-3.21.11-4.39.34-1.18.23-2.13.54-2.84.95-.71.41-1.22.87-1.53,1.38-.31.52-.46,1.07-.46,1.65,0,.94.29,1.68.87,2.21.58.53,1.39.8,2.43.8.87,0,1.68-.19,2.4-.58.73-.39,1.35-.91,1.87-1.55.52-.65.92-1.38,1.21-2.18.29-.81.44-1.65.44-2.52v-.49Z"/>
      <path class="st35" d="M379.41,649.98c0,1.85-.29,3.56-.87,5.15-.58,1.59-1.4,2.96-2.45,4.13-1.05,1.17-2.31,2.08-3.79,2.74-1.47.66-3.1.99-4.88.99-1.68,0-3.2-.24-4.56-.73-1.36-.49-2.52-1.22-3.5-2.21-.97-.99-1.72-2.25-2.23-3.79-.52-1.54-.78-3.37-.78-5.51,0-1.81.28-3.5.85-5.07.57-1.57,1.38-2.93,2.43-4.08,1.05-1.15,2.31-2.06,3.79-2.72,1.47-.66,3.13-1,4.98-1,1.62,0,3.1.24,4.44.7,1.34.47,2.5,1.19,3.47,2.16.97.97,1.73,2.22,2.28,3.74.55,1.52.82,3.35.82,5.49M374.07,650.3c0-2.6-.5-4.59-1.5-5.99-1-1.4-2.53-2.09-4.59-2.09-.77,0-1.53.15-2.27.46-.74.31-1.4.79-1.98,1.44-.58.65-1.05,1.48-1.4,2.48-.35,1.01-.53,2.21-.53,3.6,0,2.76.52,4.84,1.55,6.23,1.03,1.4,2.56,2.09,4.59,2.09.84,0,1.63-.16,2.37-.49.74-.32,1.4-.83,1.96-1.51.56-.68,1.01-1.54,1.33-2.58.32-1.04.48-2.26.48-3.65"/>
      <path class="st35" d="M391.5,662.51v-4.03l13.35-20.83c.42-.65.82-1.25,1.19-1.82.37-.57.78-1.14,1.24-1.72-.68.03-1.51.06-2.48.07-.97.02-2.09.02-3.35.02h-5.1c-.1,1.2-.29,2.51-.58,3.93h-3.88v-8.4h21.56v4.18l-14.13,21.51c-.29.45-.57.89-.83,1.31-.26.42-.57.86-.92,1.31.45-.06,1.25-.1,2.38-.1h9.13c.13-1.13.32-2.51.58-4.13h3.84v8.69h-21.99Z"/>
      <path class="st35" d="M437.04,648.33c0,.71-.05,1.52-.15,2.43h-15.39c-.06,2.82.5,4.87,1.7,6.17,1.2,1.29,3.01,1.94,5.44,1.94,1.23,0,2.46-.14,3.69-.41,1.23-.27,2.35-.66,3.35-1.14l.48,4.13c-1.23.52-2.56.91-3.98,1.16-1.42.26-2.88.39-4.37.39-3.79,0-6.68-.99-8.67-2.99-1.99-1.99-2.99-5.12-2.99-9.4,0-1.81.24-3.5.73-5.05.49-1.55,1.2-2.9,2.14-4.03.94-1.13,2.1-2.02,3.47-2.67,1.38-.65,2.94-.97,4.69-.97s3.2.28,4.44.83c1.24.55,2.27,1.3,3.06,2.26.79.96,1.38,2.06,1.77,3.33.39,1.26.58,2.61.58,4.03M431.85,647.12c.06-1.65-.34-2.96-1.21-3.93-.87-.97-2.09-1.46-3.64-1.46-1.46,0-2.66.49-3.62,1.46-.95.97-1.55,2.28-1.77,3.93h10.25Z"/>
      <path class="st35" d="M456.36,642.99c-2.65-.45-4.6.15-5.83,1.8-1.23,1.65-1.85,4.29-1.85,7.91v5.97c.74.07,1.47.15,2.18.24.71.1,1.39.23,2.04.39v3.2h-13.64v-3.2c.65-.16,1.33-.29,2.04-.39.71-.1,1.44-.18,2.18-.24v-16.27c-.58-.1-1.25-.19-2.01-.27-.76-.08-1.5-.15-2.21-.22v-3.2c1.36-.16,2.86-.27,4.5-.34,1.64-.06,3.22-.06,4.72,0,0,.68-.04,1.51-.12,2.48-.08.97-.2,1.93-.37,2.86h.05c.29-.81.67-1.59,1.12-2.33.45-.74,1.02-1.4,1.7-1.97.68-.57,1.49-.99,2.43-1.26.94-.27,2.04-.36,3.3-.27l-.24,5.1Z"/>
      <path class="st35" d="M474.57,642.99c-2.65-.45-4.6.15-5.83,1.8-1.23,1.65-1.85,4.29-1.85,7.91v5.97c.74.07,1.47.15,2.18.24.71.1,1.39.23,2.04.39v3.2h-13.64v-3.2c.65-.16,1.33-.29,2.04-.39.71-.1,1.44-.18,2.18-.24v-16.27c-.58-.1-1.25-.19-2.02-.27-.76-.08-1.5-.15-2.21-.22v-3.2c1.36-.16,2.86-.27,4.5-.34,1.64-.06,3.22-.06,4.72,0,0,.68-.04,1.51-.12,2.48-.08.97-.21,1.93-.37,2.86h.05c.29-.81.67-1.59,1.12-2.33.45-.74,1.02-1.4,1.7-1.97.68-.57,1.49-.99,2.43-1.26.94-.27,2.04-.36,3.3-.27l-.24,5.1Z"/>
      <path class="st35" d="M497.05,648.33c0,.71-.05,1.52-.15,2.43h-15.39c-.07,2.82.5,4.87,1.7,6.17,1.2,1.29,3.01,1.94,5.44,1.94,1.23,0,2.46-.14,3.69-.41,1.23-.27,2.35-.66,3.35-1.14l.49,4.13c-1.23.52-2.56.91-3.98,1.16-1.42.26-2.88.39-4.37.39-3.79,0-6.68-.99-8.67-2.99-1.99-1.99-2.99-5.12-2.99-9.4,0-1.81.24-3.5.73-5.05.48-1.55,1.2-2.9,2.14-4.03.94-1.13,2.1-2.02,3.47-2.67,1.38-.65,2.94-.97,4.69-.97s3.2.28,4.44.83c1.25.55,2.27,1.3,3.06,2.26.79.96,1.38,2.06,1.77,3.33.39,1.26.58,2.61.58,4.03M491.86,647.12c.06-1.65-.34-2.96-1.21-3.93-.87-.97-2.09-1.46-3.64-1.46-1.46,0-2.66.49-3.62,1.46-.95.97-1.55,2.28-1.77,3.93h10.25Z"/>
      <path class="st35" d="M518.56,646.97c0-1.52-.25-2.69-.75-3.52-.5-.83-1.44-1.24-2.83-1.24-.9,0-1.73.23-2.49.68-.76.45-1.42,1.07-1.98,1.85s-1.01,1.69-1.33,2.74c-.32,1.05-.48,2.18-.48,3.37v7.82c.65.07,1.29.14,1.94.22.65.08,1.25.2,1.8.36v3.25h-13.16v-3.2c.65-.16,1.33-.29,2.04-.39.71-.1,1.44-.18,2.18-.24v-16.27c-.58-.1-1.25-.19-2.01-.27-.76-.08-1.5-.15-2.21-.22v-3.2c1.36-.16,2.86-.27,4.5-.34,1.64-.06,3.22-.06,4.72,0,0,.65-.03,1.42-.1,2.33-.07.91-.16,1.7-.29,2.38l.1.05c.71-1.55,1.77-2.82,3.17-3.79,1.4-.97,3.12-1.46,5.16-1.46,1.35,0,2.5.2,3.44.61.94.41,1.68.96,2.23,1.65.55.7.94,1.51,1.19,2.45.24.94.36,1.94.36,3.01v13.06c.71.07,1.41.15,2.09.24.68.1,1.33.23,1.94.39v3.2h-9.23v-15.54Z"/>
      <path class="st35" d="M548.08,646.97c0-1.52-.25-2.69-.75-3.52-.5-.83-1.44-1.24-2.83-1.24-.9,0-1.73.23-2.49.68-.76.45-1.42,1.07-1.98,1.85s-1.01,1.69-1.33,2.74c-.32,1.05-.48,2.18-.48,3.37v7.82c.65.07,1.29.14,1.94.22.65.08,1.25.2,1.8.36v3.25h-13.16v-3.2c.65-.16,1.33-.29,2.04-.39.71-.1,1.44-.18,2.19-.24v-16.27c-.58-.1-1.26-.19-2.02-.27-.76-.08-1.5-.15-2.21-.22v-3.2c1.36-.16,2.86-.27,4.5-.34,1.64-.06,3.22-.06,4.72,0,0,.65-.03,1.42-.1,2.33-.07.91-.16,1.7-.29,2.38l.1.05c.71-1.55,1.77-2.82,3.17-3.79,1.4-.97,3.12-1.46,5.16-1.46,1.36,0,2.5.2,3.44.61.93.41,1.68.96,2.23,1.65.55.7.94,1.51,1.19,2.45.24.94.36,1.94.36,3.01v13.06c.71.07,1.41.15,2.09.24.68.1,1.33.23,1.94.39v3.2h-9.23v-15.54Z"/>
      <path class="st35" d="M579.69,648.33c0,.71-.05,1.52-.15,2.43h-15.39c-.07,2.82.5,4.87,1.7,6.17,1.2,1.29,3.01,1.94,5.44,1.94,1.23,0,2.46-.14,3.69-.41,1.23-.27,2.35-.66,3.35-1.14l.49,4.13c-1.23.52-2.56.91-3.98,1.16-1.42.26-2.88.39-4.37.39-3.79,0-6.68-.99-8.67-2.99-1.99-1.99-2.99-5.12-2.99-9.4,0-1.81.24-3.5.73-5.05.49-1.55,1.2-2.9,2.14-4.03.94-1.13,2.09-2.02,3.47-2.67,1.38-.65,2.94-.97,4.69-.97s3.2.28,4.44.83c1.25.55,2.27,1.3,3.06,2.26.79.96,1.38,2.06,1.77,3.33.39,1.26.58,2.61.58,4.03M574.5,647.12c.06-1.65-.34-2.96-1.21-3.93-.87-.97-2.09-1.46-3.64-1.46-1.46,0-2.66.49-3.62,1.46-.95.97-1.55,2.28-1.77,3.93h10.25Z"/>
      <path class="st35" d="M599.02,642.99c-2.66-.45-4.6.15-5.83,1.8-1.23,1.65-1.85,4.29-1.85,7.91v5.97c.74.07,1.47.15,2.18.24.71.1,1.39.23,2.04.39v3.2h-13.64v-3.2c.65-.16,1.33-.29,2.04-.39.71-.1,1.44-.18,2.18-.24v-16.27c-.58-.1-1.25-.19-2.02-.27-.76-.08-1.5-.15-2.21-.22v-3.2c1.36-.16,2.86-.27,4.5-.34,1.64-.06,3.22-.06,4.72,0,0,.68-.04,1.51-.12,2.48-.08.97-.2,1.93-.37,2.86h.05c.29-.81.67-1.59,1.12-2.33.45-.74,1.02-1.4,1.7-1.97.68-.57,1.49-.99,2.43-1.26.94-.27,2.04-.36,3.3-.27l-.24,5.1Z"/>
    </g>
  </g>
  <g>
    <path class="st9" d="M319.54,112.24c-2.06,5.16-7.84,19.08-18.73,35.24-.02.04-.04.07-.09.11-28.07,34.31-68.8,62.29-113.55,68.22-43.89,5.8-89.45-7.44-109.37-38.47,5.6,5.76,14.52,13.7,27.03,20.34,50.22,26.61,106.2,3.96,122.38-2.57,55.34-22.36,83.1-66.47,92.33-82.87Z"/>
    <path class="st26" d="M564.6,251.18c-50.62,24.26-96.69,18.42-96.69,18.42,24.95,0,51.38-12.15,72.47-31.17.44,3.45,1.68,5.8,3.19,7.44,3.83,4.18,11.44,5.89,21.03,5.31Z"/>
    <path class="st8" d="M656.09,143.6c-9.12,14.06-25.43,34.66-51.84,51.38-15.36,9.72-30.21,15.67-42.68,19.35,6.2-9.03,11.22-18.75,14.7-28.91.09-.29.2-.58.27-.86,6.24-18.68,6.2-35.9,1.02-49.76-.2-.62-.44-1.22-.71-1.82-.2-.53-.42-1.06-.66-1.57-.09-.2-.2-.42-.29-.62-.42-.91-.86-1.82-1.35-2.7-.22-.42-.44-.82-.66-1.2-.24-.44-.51-.89-.77-1.31-.22-.38-.44-.73-.69-1.08-.73-1.13-1.51-2.24-2.35-3.3-.24-.33-.49-.64-.75-.93-1.68-2.13-3.59-4.07-5.67-5.89-.95-.84-1.93-1.64-2.94-2.37-.53-.42-1.04-.8-1.59-1.13-5.91-4.1-12.9-6.97-20.83-8.46-.42-.09-.84-.15-1.26-.22-.02,0-.04-.02-.07-.02-6.8-2.35-86.33-28.07-148.64,21.65-12.84,10.25-22.47,21.74-29.71,32.78,22.42-43.58,59.54-80.95,101.33-104.35,2.74-1.53,5.49-3.01,8.28-4.43,11.2-5.69,22.6-10.31,33.98-13.79.95-.31,1.93-.6,2.88-.86,1.93-.55,3.83-1.08,5.76-1.57.95-.24,1.9-.46,2.88-.71,12.48-2.94,24.99-4.52,37.32-4.52,69.37,0,110.79,49.67,105.05,117.21Z"/>
    <path class="st10" d="M338.29,218.62h-.04c.73-5.27,1.75-10.62,3.08-16.07.24-1.08.53-2.19.82-3.3,0-.04.02-.11.02-.15.24-.91.49-1.84.75-2.74,3.79-6,7.68-11.64,11.64-16.96,2.28-3.01,4.56-5.93,6.86-8.74,1.15-1.39,2.32-2.77,3.48-4.12.53-.69,1.13-1.35,1.75-2.01,29.24-33.03,61.2-49.6,88.76-57.68,4.87-1.42,9.58-2.59,14.14-3.52,1.13-.22,2.26-.44,3.36-.66,29.55-5.49,50.87-1.7,52.44-1.42.07.02.09.02.09.02-1.13,0-2.28.02-3.43.07-1.15.07-2.3.13-3.43.24-.84.07-1.66.15-2.48.24-.22.02-.44.07-.64.09-.55.04-1.11.13-1.66.22-.24.02-.51.07-.75.11-1.24.18-2.46.4-3.7.64-.62.11-1.24.24-1.86.38-1.68.35-3.36.77-5.05,1.24-.82.22-1.64.44-2.46.71-2.32.69-4.65,1.48-6.97,2.37-.29.11-.6.22-.89.35-.66.22-1.31.49-1.97.77-.24.11-.49.2-.73.31-.93.35-1.84.75-2.74,1.2-.2.09-.4.18-.6.27t-.04.02c-.82.35-1.66.75-2.48,1.15-1.02.49-2.06,1.02-3.08,1.55-2.04,1.08-4.05,2.19-6.02,3.36-.97.58-1.97,1.17-2.94,1.79-.97.6-1.93,1.24-2.88,1.88-.77.49-1.53,1-2.28,1.55-.29.2-.58.4-.86.6-.82.58-1.64,1.17-2.46,1.79-.91.66-1.84,1.35-2.72,2.08-.91.69-1.79,1.39-2.66,2.12-1.02.84-2.04,1.7-3.05,2.59-2.37,2.04-4.65,4.18-6.88,6.44h-.02c-28.13,7.66-53.5,22.11-74.95,41.53-13.41,12.13-25.06,25.88-34.46,39.69Z"/>
    <path class="st16" d="M544.37,312c-8.39,5.31-17.02,10.05-25.81,14.17-24.88,11.67-50.96,18.26-76.23,18.26-63.26,0-103.26-41.26-105.52-99.74,10.34,54.23,52.75,90.89,115.81,90.89,28.31,0,57.51-7.39,85.35-20.45,2.15-1,4.27-2.04,6.4-3.12Z"/>
    <path class="st15" d="M559.29,301.62c.51-.31,1.04-.62,1.55-.95-5.36,4.03-10.87,7.79-16.47,11.33-2.13,1.08-4.25,2.12-6.4,3.12-27.85,13.06-57.04,20.45-85.35,20.45-63.06,0-105.47-36.66-115.81-90.89-.02-1.11-.07-2.21-.07-3.32,13.41,50.93,58.39,84.73,123.85,84.38,30.5-.18,61.91-7.75,91.82-20.96,2.32-1.02,4.6-2.06,6.88-3.17Z"/>
    <path class="st14" d="M637.82,207.99c-2.48,5.22-5.18,10.36-8.1,15.41-14.03,24.46-32.63,46.68-53.92,65.21-.09.09-.16.15-.24.22-17.8,12.82-42.83,26.45-73.98,31.21-45.49,6.97-108.4-4.29-145.38-49.91-9.52-11.75-15.56-23.6-19.43-33.29.02-1.77.09-3.56.2-5.36.18-3.34.49-6.73.91-10.18.04.69.09,1.37.13,2.04,8.66-11.95,18.97-23.68,30.61-34.22,16.82-15.23,36.08-27.4,57.2-35.59,3.63-1.44,7.3-2.74,11.05-3.92-3.28,4.16-6.31,8.52-9.05,13.02-3.3,5.47-6.18,11.13-8.57,17-.77,1.9-1.51,3.85-2.17,5.8-15.89,46.48,6.88,84.18,50.84,84.18,0,0,.22.02.64.07,17.51,4.09,48.52,8.43,84.11-2.04,25.81-7.59,46.06-20.63,61.47-34.24,9.83-8.65,17.66-17.53,23.68-25.39Z"/>
    <path class="st50" d="M447.71,137.4c-.86.86-1.73,1.75-2.57,2.63-.27.27-.49.51-.73.77-.75.8-1.51,1.62-2.21,2.43-1.17,1.28-2.3,2.61-3.39,3.96-.46.53-.89,1.06-1.33,1.62-.2.24-.42.51-.62.77-25.46,8.01-48.52,21.67-68.24,39.51-8.85,8.01-16.93,16.71-24.11,25.68-2.26,2.81-4.43,5.67-6.51,8.54-.04-.66-.09-1.35-.13-2.04.11-.89.22-1.77.38-2.68h.04c9.41-13.81,21.05-27.56,34.46-39.69,21.45-19.41,46.79-33.87,74.93-41.53h.02Z"/>
    <path class="st1" d="M164.42,348.93c17.29-5.76,34-13.66,44.69-19.59,93.57-51.91,125.97-173.94,124.2-247.49,14.48,87.52-43.43,244.84-168.89,267.08Z"/>
    <path class="st0" d="M209.11,329.34c-10.69,5.93-27.4,13.83-44.69,19.59-10.03,1.77-20.47,2.68-31.34,2.63,0,0,73.31-21.94,101.91-112.05,5.47-11.27,10.71-24.28,15.78-39.07,0,0,91.11-67.25,73.09-148.97,4.4,8.61,7.55,18.88,9.45,30.37,1.77,73.56-30.64,195.59-124.2,247.49Z"/>
    <path class="st24" d="M48.03,309.15c-4.14-6.52-4.65-11.81-4.65-14.61,0-18.3,21.76-32.5,38.14-34.93,5.23-.78,8.85-.19,9.92,0,11.71,2.11,18.89,11.31,21.07,13.86,6.75,7.87,21.86,17.67,59.3,25.03-11.67,6.66-26.65,13.17-44.76,16.73-32.89,6.49-60.98.29-79.02-6.09Z"/>
    <path class="st2" d="M234.99,239.51c-28.6,90.11-101.91,112.05-101.91,112.05-24.46-.11-46.86-5.95-63.31-17.29,15.3.77,36.35-.42,59.63-8.52,22.91-7.97,40.02-19.88,51.64-29.99,10.58-3.85,20.74-10.07,29.17-18.7,8.68-8.92,16.93-21.43,24.77-37.54Z"/>
    <g class="st29">
      <path class="st25" d="M133.08,351.57s73.31-21.95,101.89-112.06c-7.82,16.11-16.08,28.63-24.77,37.55-8.26,8.49-18.21,14.62-28.57,18.48-26.27,35.25-57.9,50.05-69.23,54.49,6.65.99,13.57,1.51,20.67,1.54Z"/>
    </g>
    <path class="st51" d="M232.2,73.23c-.73-.04-1.51-.09-2.3-.11-22.09-.71-48.01,8.65-65.39,27.91-.02,0-.02.02-.04.02-7.48,2.15-15.45,4.89-23.71,8.43-29.93,12.86-51.51,31.01-65.9,45.93.02-1.57.13-3.19.27-4.83.09-.93.2-1.86.31-2.83.09-.75.2-1.51.31-2.26.11-.82.24-1.62.4-2.43.33-1.84.71-3.56,1.08-5.2,20.28-22.4,41.75-37.25,62.07-47.04,50-24.13,92.9-17.6,92.9-17.6Z"/>
    <path class="st11" d="M318.02,123.04c-21.43,48.3-72.71,96.75-131.42,104.52-47.19,6.24-96.4-11.11-108.79-50.22,19.92,31.03,65.48,44.27,109.37,38.47,44.76-5.93,85.49-33.91,113.55-68.22.04-.04.07-.07.09-.11,6.44-7.88,12.22-16.09,17.2-24.44Z"/>
    <path class="st4" d="M318.02,123.04c-4.98,8.34-10.76,16.56-17.2,24.44,10.89-16.16,16.67-30.08,18.73-35.24-9.23,16.4-36.99,60.52-92.33,82.87-16.18,6.53-72.16,29.17-122.38,2.57-12.51-6.64-21.43-14.59-27.03-20.34-.02,0-.02-.02-.02-.04-.53-1.68-.97-3.39-1.37-5.14,10.58-9.92,23.37-20.92,38.4-32.1,10.69-7.95,20.67-14.61,29.22-19.99,4.27-2.68,8.17-5.02,11.62-7.04-2.61,4.34-4.83,9.05-6.55,14.12-1.77,5.18-2.79,9.96-3.14,14.37-1.84,21.87,12.31,34.62,31.79,38.4,14.21,2.77,30.04,1.04,45.86-4.03.02-.02.07-.02.09-.04,42.08-13.46,84.22-50.36,96.77-88.32,4.4-13.3,5.16-26.74,1.02-39.33,3.98,7.02,6.24,14.96,6.95,23.53v.02c1.35,15.72-2.5,33.49-10.43,51.29Z"/>
    <path class="st5" d="M223.61,175.9s.07-.02.09-.04c50.07-20.28,68.49-88.21,20.36-100.78h-.02c-.64-.18-1.31-.33-1.99-.49-.73-.15-1.55-.31-2.41-.46-22-4.09-82.32-11.47-134.18,25.48-8.48,6.02-15.69,12.51-21.83,18.99C117.01,38.77,214.27,8.71,277.77,22.5c19.97,4.34,34.18,13.37,43.72,25.7,18.08,54.98-45.8,112.11-97.88,127.7Z"/>
    <path class="st6" d="M249.98,202.71c22.24-19.44,88.06-81.26,74.64-143.72-.77-3.57-1.8-7.18-3.13-10.8.79,1.09,1.58,2.18,2.37,3.27,1.06,2.58,2.48,6.38,3.73,11.08,8.36,31.53-2.89,59.22-7,69.35-18.34,45.15-60.25,66-70.61,70.82Z"/>
    <path class="st7" d="M234.98,239.51c38.68-31.29,89.92-84.63,95.49-156.08.33-4.21.5-8.5.5-12.89,2.34,17.67,3.15,42.79-4.7,70.96-20.46,73.53-83.38,108.92-98.26,116.8,1.07-2.66,2.13-5.38,3.18-8.17,1.35-3.61,2.62-7.15,3.8-10.62Z"/>
    <path class="st20" d="M652.72,165.36c-1.46,6.57-3.34,13.26-5.67,20.05-2.26,6.62-4.87,13.13-7.79,19.52-.46,1.02-.95,2.04-1.44,3.05-15.52,20.19-42.92,47.21-85.15,59.63-35.59,10.47-66.6,6.13-84.11,2.04,7.24.75,74.57,6.18,133.92-42.65,17.89-14.7,35.04-34.33,49.63-60.52.2-.38.42-.75.62-1.13Z"/>
    <path class="st3" d="M656.09,143.6c-.6,7.06-1.7,14.32-3.36,21.76-.2.38-.42.75-.62,1.13-24.75,44.45-56.95,70.06-87.5,84.69-9.58.58-17.2-1.13-21.03-5.31-1.51-1.64-2.74-3.98-3.19-7.44,7.95-7.17,15.12-15.3,21.18-24.11,12.46-3.67,27.31-9.63,42.68-19.35,26.41-16.71,42.72-37.32,51.84-51.38Z"/>
    <g class="st37">
      <path class="st12" d="M548.48,230.52c-22.15,23.49-52.3,39.07-80.57,39.07,0,0,118.41,15.05,184.19-103.09.21-.38.42-.76.63-1.13,1.38-6.2,2.39-12.28,3.03-18.23-31.45,49.62-72.57,72.77-107.27,83.38Z"/>
    </g>
    <path class="st52" d="M525.45,101.26c-25.88,0-55.09,13.48-77.74,36.15h-.02c-28.13,7.66-53.48,22.11-74.93,41.53-2.66,2.41-5.25,4.87-7.77,7.39-10.18,10.2-19.15,21.23-26.69,32.3.55-4.91,1.46-10.32,2.9-16.05.44-1.84.95-3.63,1.48-5.33.09-.31.2-.62.29-.93,45.18-71.45,103.59-91.02,142-95.45.24-.02.46-.04.69-.07,12.84-1.24,23.93-1.06,32.18-.51.22,0,.44.02.64.04,4.47.44,6.97.93,6.97.93Z"/>
    <path class="st54" d="M536.96,102.19c-.6-.09-1.2-.2-1.82-.27-.97-.15-1.95-.27-2.94-.35-1.02-.09-2.06-.18-3.08-.22h-.02c-1.22-.07-2.43-.09-3.65-.09,0,0-2.5-.49-6.97-.93-.2-.02-.42-.04-.64-.04-6.93-.64-18.22-1.08-32.18.51-.22.02-.44.04-.69.07-38.4,4.43-96.82,23.99-142,95.45-.02.02-.04.02-.04.04,0-.04.02-.07.02-.11,1-3.56,2.1-7.17,3.36-10.82,3.36-9.83,7.48-19.46,12.31-28.8,7.24-11.05,16.87-22.53,29.71-32.78,62.31-49.72,141.84-23.99,148.64-21.65Z"/>
    <path class="st13" d="M560.84,300.67c-5.36,4.03-10.87,7.79-16.47,11.33-2.13,1.08-4.25,2.12-6.4,3.12-27.85,13.06-57.04,20.45-85.35,20.45-63.06,0-105.47-36.66-115.81-90.89-.02-1.11-.07-2.21-.07-3.32,13.41,50.93,58.39,84.73,123.85,84.38,30.5-.18,61.91-7.75,91.82-20.96,2.32-1.02,4.6-2.06,6.88-3.17.51-.31,1.04-.62,1.55-.95Z"/>
    <path class="st21" d="M575.56,288.83c-4.78,4.14-9.7,8.1-14.72,11.84-.51.33-1.04.64-1.55.95-2.28,1.11-4.56,2.15-6.88,3.17-29.9,13.21-61.31,20.78-91.82,20.96-65.45.35-110.43-33.45-123.85-84.38-.02-1.51-.02-3.01.02-4.54,3.87,9.7,9.92,21.54,19.43,33.29,36.99,45.62,99.9,56.89,145.38,49.91,31.14-4.76,56.18-18.39,73.98-31.21Z"/>
    <path class="st53" d="M181.04,295.76c-11.62,10.12-28.73,22.02-51.64,29.99-23.29,8.1-44.34,9.3-59.63,8.52-9.5-6.55-17-14.94-21.74-25.12,18.04,6.37,46.13,12.57,79.02,6.09,18.11-3.56,33.09-10.07,44.76-16.73,3.1-.71,6.18-1.64,9.23-2.74Z"/>
    <g class="st57">
      <g id="id6">
        <g class="st41">
          <polygon class="st23" points="304.67 41.79 395.84 41.79 289.23 249.18 198.06 249.18 304.67 41.79"/>
        </g>
      </g>
    </g>
    <path class="st22" d="M205.42,135.47"/>
    <path class="st55" d="M164.47,101.06c-3.28,3.63-6.26,7.61-8.81,11.98-10.43,6.09-24.84,15.14-40.84,27.03-15.03,11.18-27.82,22.18-38.4,32.1-1.17-5.22-1.7-10.8-1.55-16.73,14.39-14.92,35.97-33.07,65.9-45.93,8.26-3.54,16.22-6.29,23.71-8.43Z"/>
    <path class="st56" d="M239.64,74.12c-2.35-.42-4.83-.71-7.44-.89,0,0-42.9-6.53-92.9,17.6-20.32,9.78-41.79,24.64-62.07,47.04.8-3.34,1.77-6.77,2.97-10.27,1.04-3.08,2.19-6.09,3.43-9.01,6.13-6.49,13.35-12.97,21.83-18.99,51.86-36.94,112.18-29.57,134.18-25.48Z"/>
  </g>
</svg>