<?xml version="1.0" encoding="UTF-8"?>
<svg id="Camada_1" xmlns="http://www.w3.org/2000/svg" xmlns:xlink="http://www.w3.org/1999/xlink" version="1.1" viewBox="0 0 700 284">
  <!-- Generator: Adobe Illustrator 30.2.1, SVG Export Plug-In . SVG Version: 2.1.1 Build 1)  -->
  <defs>
    <style>
      .st0 {
        fill: none;
      }

      .st1 {
        mask: url(#mask);
      }

      .st2 {
        fill: #7ac143;
      }

      .st3 {
        fill: url(#linear-gradient11);
      }

      .st3, .st4, .st5, .st6, .st7, .st8, .st9, .st10, .st11, .st12, .st13, .st14, .st15, .st16, .st17 {
        fill-rule: evenodd;
      }

      .st4 {
        fill: url(#linear-gradient10);
      }

      .st5 {
        fill: url(#linear-gradient13);
      }

      .st18 {
        filter: url(#luminosity-noclip);
      }

      .st19 {
        fill: #00b9f2;
      }

      .st20 {
        fill: url(#linear-gradient31);
      }

      .st21 {
        fill: url(#linear-gradient30);
      }

      .st22 {
        fill: url(#linear-gradient28);
      }

      .st23 {
        fill: url(#linear-gradient29);
      }

      .st24 {
        fill: url(#linear-gradient18);
      }

      .st25 {
        fill: url(#linear-gradient15);
      }

      .st26 {
        fill: url(#linear-gradient16);
      }

      .st27 {
        fill: url(#linear-gradient17);
      }

      .st28 {
        fill: url(#linear-gradient14);
      }

      .st29 {
        fill: url(#linear-gradient19);
      }

      .st30 {
        fill: url(#linear-gradient23);
      }

      .st31 {
        fill: url(#linear-gradient22);
      }

      .st32 {
        fill: url(#linear-gradient24);
      }

      .st33 {
        fill: url(#linear-gradient25);
      }

      .st34 {
        fill: url(#linear-gradient21);
      }

      .st35 {
        fill: url(#linear-gradient20);
      }

      .st36 {
        fill: url(#linear-gradient27);
      }

      .st37 {
        fill: url(#linear-gradient26);
      }

      .st38 {
        filter: url(#luminosity-noclip6);
      }

      .st39 {
        filter: url(#luminosity-noclip2);
      }

      .st40 {
        filter: url(#luminosity-noclip4);
      }

      .st6 {
        fill: url(#linear-gradient12);
      }

      .st6, .st7, .st8, .st9 {
        mix-blend-mode: multiply;
      }

      .st41 {
        fill: #005496;
      }

      .st42 {
        mask: url(#mask-2);
      }

      .st43 {
        mask: url(#mask-3);
      }

      .st44 {
        mask: url(#mask-4);
      }

      .st45 {
        mask: url(#mask-5);
      }

      .st46 {
        mask: url(#mask-7);
      }

      .st47 {
        mask: url(#mask-6);
      }

      .st48 {
        mask: url(#mask-1);
      }

      .st49 {
        mask: url(#mask-9);
      }

      .st50 {
        mask: url(#mask-8);
      }

      .st7 {
        fill: url(#linear-gradient2);
      }

      .st8 {
        fill: url(#linear-gradient9);
      }

      .st9 {
        fill: url(#linear-gradient6);
      }

      .st51 {
        clip-path: url(#clippath-1);
      }

      .st52, .st17 {
        fill: #1f8cec;
      }

      .st10 {
        fill: url(#linear-gradient);
      }

      .st11 {
        fill: url(#linear-gradient1);
      }

      .st12 {
        fill: url(#linear-gradient8);
      }

      .st13 {
        fill: url(#linear-gradient7);
      }

      .st14 {
        fill: url(#linear-gradient4);
      }

      .st15 {
        fill: url(#linear-gradient5);
      }

      .st16 {
        fill: url(#linear-gradient3);
      }

      .st53 {
        mask: url(#mask-10);
      }

      .st54 {
        mask: url(#mask-11);
      }

      .st55 {
        clip-path: url(#clippath);
      }
    </style>
    <linearGradient id="linear-gradient" x1="-442.84" y1="50.22" x2="-527.55" y2="171.97" gradientTransform="translate(694.25 286) scale(1 -1) skewX(8)" gradientUnits="userSpaceOnUse">
      <stop offset="0" stop-color="#72ba51"/>
      <stop offset="1" stop-color="#8fc326"/>
    </linearGradient>
    <linearGradient id="linear-gradient1" x1="-553.02" y1="79.97" x2="-422.25" y2="95.65" gradientTransform="translate(694.25 286) scale(1 -1) skewX(8)" gradientUnits="userSpaceOnUse">
      <stop offset="0" stop-color="#38828a"/>
      <stop offset="1" stop-color="#28a7cd"/>
    </linearGradient>
    <filter id="luminosity-noclip" x="158.07" y="146.03" width="129.25" height="77.59" color-interpolation-filters="sRGB" filterUnits="userSpaceOnUse">
      <feFlood flood-color="#fff" result="bg"/>
      <feBlend in="SourceGraphic" in2="bg"/>
    </filter>
    <filter id="luminosity-noclip1" x="158.07" y="-8334" width="32.09" height="32766" color-interpolation-filters="sRGB" filterUnits="userSpaceOnUse">
      <feFlood flood-color="#fff" result="bg"/>
      <feBlend in="SourceGraphic" in2="bg"/>
    </filter>
    <mask id="mask-2" x="158.07" y="-8334" width="32.09" height="32766" maskUnits="userSpaceOnUse"/>
    <linearGradient id="linear-gradient2" x1="-586.69" y1="46.4" x2="-524.62" y2="148.19" gradientTransform="translate(694.25 286) scale(1 -1) skewX(8)" gradientUnits="userSpaceOnUse">
      <stop offset="0" stop-color="#fff"/>
      <stop offset="1" stop-color="#000"/>
    </linearGradient>
    <mask id="mask-1" x="158.07" y="146.03" width="129.25" height="77.59" maskUnits="userSpaceOnUse">
      <g class="st18">
        <g class="st42">
          <polygon class="st7" points="161.88 146.03 190.16 146.03 186.35 173.14 158.07 173.14 161.88 146.03"/>
        </g>
      </g>
    </mask>
    <linearGradient id="linear-gradient3" x1="-570.23" y1="-91.53" x2="-426.51" y2="144.2" gradientTransform="translate(694.25 286) scale(1 -1) skewX(8)" gradientUnits="userSpaceOnUse">
      <stop offset="0" stop-color="#fff"/>
      <stop offset="1" stop-color="#fff"/>
    </linearGradient>
    <mask id="mask" x="213.02" y="160.86" width="74.3" height="62.76" maskUnits="userSpaceOnUse">
      <g id="id2">
        <g class="st48">
          <polygon class="st16" points="221.84 160.86 287.32 160.86 278.5 223.62 213.02 223.62 221.84 160.86"/>
        </g>
      </g>
    </mask>
    <linearGradient id="linear-gradient4" x1="-578.13" y1="117.59" x2="-619.83" y2="19.45" gradientTransform="translate(694.25 286) scale(1 -1) skewX(8)" gradientUnits="userSpaceOnUse">
      <stop offset="0" stop-color="#6cbd4e"/>
      <stop offset="1" stop-color="#3695bc"/>
    </linearGradient>
    <linearGradient id="linear-gradient5" x1="-610.99" y1="18.23" x2="-643.34" y2="82.94" xlink:href="#linear-gradient1"/>
    <filter id="luminosity-noclip2" x="63.86" y="166.29" width="54.16" height="98.65" color-interpolation-filters="sRGB" filterUnits="userSpaceOnUse">
      <feFlood flood-color="#fff" result="bg"/>
      <feBlend in="SourceGraphic" in2="bg"/>
    </filter>
    <filter id="luminosity-noclip3" x="98.42" y="-8334" width="19.6" height="32766" color-interpolation-filters="sRGB" filterUnits="userSpaceOnUse">
      <feFlood flood-color="#fff" result="bg"/>
      <feBlend in="SourceGraphic" in2="bg"/>
    </filter>
    <mask id="mask-5" x="98.42" y="-8334" width="19.6" height="32766" maskUnits="userSpaceOnUse"/>
    <linearGradient id="linear-gradient6" x1="-601.12" y1="135.15" x2="-601.12" y2="95.08" xlink:href="#linear-gradient2"/>
    <mask id="mask-4" x="63.86" y="166.29" width="54.16" height="98.65" maskUnits="userSpaceOnUse">
      <g class="st39">
        <g class="st45">
          <polygon class="st9" points="101.89 166.29 118.02 166.29 114.55 190.98 98.42 190.98 101.89 166.29"/>
        </g>
      </g>
    </mask>
    <linearGradient id="linear-gradient7" x1="-614.68" y1="114" x2="-614.68" y2="21.2" xlink:href="#linear-gradient3"/>
    <mask id="mask-3" x="63.86" y="207.76" width="45.39" height="57.18" maskUnits="userSpaceOnUse">
      <g id="id4">
        <g class="st44">
          <polygon class="st13" points="71.89 207.76 109.25 207.76 101.21 264.94 63.86 264.94 71.89 207.76"/>
        </g>
      </g>
    </mask>
    <linearGradient id="linear-gradient8" x1="-666.54" y1="104.67" x2="-574.82" y2="150.38" xlink:href="#linear-gradient"/>
    <filter id="luminosity-noclip4" x="108.96" y="112.46" width="37.41" height="95.4" color-interpolation-filters="sRGB" filterUnits="userSpaceOnUse">
      <feFlood flood-color="#fff" result="bg"/>
      <feBlend in="SourceGraphic" in2="bg"/>
    </filter>
    <filter id="luminosity-noclip5" x="117.89" y="-8334" width="16.16" height="32766" color-interpolation-filters="sRGB" filterUnits="userSpaceOnUse">
      <feFlood flood-color="#fff" result="bg"/>
      <feBlend in="SourceGraphic" in2="bg"/>
    </filter>
    <mask id="mask-8" x="117.89" y="-8334" width="16.16" height="32766" maskUnits="userSpaceOnUse"/>
    <linearGradient id="linear-gradient9" x1="-627.16" y1="33.25" x2="-580.83" y2="159.84" xlink:href="#linear-gradient2"/>
    <mask id="mask-7" x="108.96" y="112.46" width="37.41" height="95.4" maskUnits="userSpaceOnUse">
      <g class="st40">
        <g class="st50">
          <polygon class="st8" points="123.68 125.13 134.05 125.13 128.26 166.33 117.89 166.33 123.68 125.13"/>
        </g>
      </g>
    </mask>
    <linearGradient id="linear-gradient10" x1="-674.97" y1="-121.98" x2="-567.69" y2="171.16" xlink:href="#linear-gradient3"/>
    <mask id="mask-6" x="108.96" y="112.46" width="37.41" height="95.4" maskUnits="userSpaceOnUse">
      <g id="id6">
        <g class="st46">
          <polygon class="st4" points="122.37 112.46 146.37 112.46 132.96 207.85 108.96 207.85 122.37 112.46"/>
        </g>
      </g>
    </mask>
    <linearGradient id="linear-gradient11" x1="-606.98" y1="112.82" x2="-658.51" y2="189.57" xlink:href="#linear-gradient"/>
    <filter id="luminosity-noclip6" x="30.78" y="122.92" width="81.13" height="42.45" color-interpolation-filters="sRGB" filterUnits="userSpaceOnUse">
      <feFlood flood-color="#fff" result="bg"/>
      <feBlend in="SourceGraphic" in2="bg"/>
    </filter>
    <filter id="luminosity-noclip7" x="84.13" y="-8334" width="27.77" height="32766" color-interpolation-filters="sRGB" filterUnits="userSpaceOnUse">
      <feFlood flood-color="#fff" result="bg"/>
      <feBlend in="SourceGraphic" in2="bg"/>
    </filter>
    <mask id="mask-11" x="84.13" y="-8334" width="27.77" height="32766" maskUnits="userSpaceOnUse"/>
    <linearGradient id="linear-gradient12" x1="-587.56" y1="172.14" x2="-628.91" y2="136.99" xlink:href="#linear-gradient2"/>
    <mask id="mask-10" x="30.78" y="122.92" width="81.13" height="42.45" maskUnits="userSpaceOnUse">
      <g class="st38">
        <g class="st54">
          <polygon class="st6" points="86.71 129.65 111.9 129.65 109.33 147.98 84.13 147.98 86.71 129.65"/>
        </g>
      </g>
    </mask>
    <linearGradient id="linear-gradient13" x1="-583.27" y1="199.65" x2="-679.01" y2="118.26" xlink:href="#linear-gradient3"/>
    <mask id="mask-9" x="30.78" y="122.92" width="64.31" height="42.45" maskUnits="userSpaceOnUse">
      <g id="id8">
        <g class="st53">
          <polygon class="st5" points="36.74 122.92 95.09 122.92 89.12 165.37 30.78 165.37 36.74 122.92"/>
        </g>
      </g>
    </mask>
    <linearGradient id="linear-gradient14" x1="295.98" y1="240.68" x2="323.11" y2="240.68" gradientUnits="userSpaceOnUse">
      <stop offset="0" stop-color="#3886e2"/>
      <stop offset="1" stop-color="#1694ff"/>
    </linearGradient>
    <linearGradient id="linear-gradient15" x1="320.7" y1="246.99" x2="349.88" y2="246.99" xlink:href="#linear-gradient14"/>
    <linearGradient id="linear-gradient16" x1="347.25" y1="241.39" x2="363.92" y2="241.39" xlink:href="#linear-gradient14"/>
    <linearGradient id="linear-gradient17" x1="361.03" y1="241.73" x2="391.53" y2="241.73" xlink:href="#linear-gradient14"/>
    <linearGradient id="linear-gradient18" x1="388.64" y1="246.86" x2="419.19" y2="246.86" xlink:href="#linear-gradient14"/>
    <linearGradient id="linear-gradient19" x1="414.98" y1="246.88" x2="445.74" y2="246.88" xlink:href="#linear-gradient14"/>
    <linearGradient id="linear-gradient20" x1="442.85" y1="241.73" x2="473.35" y2="241.73" xlink:href="#linear-gradient14"/>
    <linearGradient id="linear-gradient21" x1="470.41" y1="246.7" x2="496.75" y2="246.7" xlink:href="#linear-gradient14"/>
    <linearGradient id="linear-gradient22" x1="507.48" y1="241.73" x2="537.98" y2="241.73" xlink:href="#linear-gradient14"/>
    <linearGradient id="linear-gradient23" x1="535.04" y1="246.75" x2="555.02" y2="246.75" xlink:href="#linear-gradient14"/>
    <linearGradient id="linear-gradient24" x1="565.96" y1="246.46" x2="587.41" y2="246.46" xlink:href="#linear-gradient14"/>
    <linearGradient id="linear-gradient25" x1="587.78" y1="241.39" x2="604.45" y2="241.39" xlink:href="#linear-gradient14"/>
    <linearGradient id="linear-gradient26" x1="601.56" y1="241.73" x2="632.06" y2="241.73" xlink:href="#linear-gradient14"/>
    <linearGradient id="linear-gradient27" x1="629.16" y1="246.86" x2="659.72" y2="246.86" xlink:href="#linear-gradient14"/>
    <linearGradient id="linear-gradient28" x1="655.83" y1="246.18" x2="674.02" y2="246.18" xlink:href="#linear-gradient14"/>
    <linearGradient id="linear-gradient29" x1="307.23" y1="154.43" x2="427.91" y2="154.43" xlink:href="#linear-gradient14"/>
    <linearGradient id="linear-gradient30" x1="411.29" y1="154.53" x2="532.8" y2="154.53" xlink:href="#linear-gradient14"/>
    <linearGradient id="linear-gradient31" x1="521.17" y1="151.73" x2="673.21" y2="151.73" xlink:href="#linear-gradient14"/>
    <clipPath id="clippath">
      <rect class="st0" x="102.26" y="13.24" width="498.59" height="65.62"/>
    </clipPath>
    <clipPath id="clippath-1">
      <rect class="st0" x="102.26" y="13.24" width="498.59" height="65.62"/>
    </clipPath>
  </defs>
  <g>
    <g id="Layer_x5F_1">
      <g id="_2832435155488">
        <g>
          <g>
            <path class="st10" d="M225.23,137.69c19.21,0,32.1,19.13,28.78,42.74-3.32,23.6-21.58,42.74-40.79,42.74,0,0,52.93,7.64,72.46-52.35.06-.19.12-.38.19-.57,1.52-39.79-21.8-70.57-55.29-70.57-13.27,0-26.29,4.83-37.79,13.14-19.96,14.42-35.31,39.31-39.29,67.61-.26,1.85-.46,3.68-.62,5.5,0,.02,0,.03,0,.05,23.12-59.18,72.36-48.29,72.36-48.29h0Z"/>
            <path class="st11" d="M213.22,223.17c-19.21,0-32.1-19.13-28.78-42.74s21.58-42.74,40.8-42.74c0,0-49.24-10.89-72.36,48.29-3.58,42.01,20.22,75.2,55,75.2s70.81-36.15,77.07-80.75c.48-3.45.79-6.85.91-10.18-.06.19-.12.38-.19.57-19.53,59.99-72.46,52.35-72.46,52.35h0Z"/>
            <path class="st52" d="M219.09,136.9c-.11.18,1.1,0,1.27.12,1.64.19,3.24.29,4.88.67-4.6.02-9.25,1.11-13.68,3.21-6.98,3.29-12.98,8.79-17.47,15.15-11.7,3.89-21.67,11.23-29.53,21.09-4.91,6.16-8.93,13.14-11.96,20.15h-.08c0-2.9-.03-5.8.16-8.77.02-.35-.05-.64.08-1.01.03-.09.01-.23-.06-.23l.23-1.64c.07-.04.11-.1.16-.24,4.99-12.57,12.21-24.66,22.93-33.81,10.45-8.92,22.72-13.58,35.53-14.56.47-.04.92-.14,1.31-.14h6.24Z"/>
            <g class="st1">
              <path class="st17" d="M245.38,203.33c-7.85,11.93-19.81,19.84-32.17,19.84,0,0,52.93,7.64,72.46-52.35.06-.19.12-.38.19-.57.12-3.15.09-6.23-.1-9.26-9.88,25.2-26.04,36.95-40.38,42.34Z"/>
            </g>
          </g>
          <g>
            <path class="st14" d="M133.24,112.41c14.26,41.5-20.32,75.65-20.32,75.65-1.05,7.5-2.34,14.12-3.85,19.83-5.46,45.76-35.79,56.9-35.79,56.9,72.16.39,83.94-111.99,59.96-152.39h0Z"/>
            <path class="st15" d="M73.28,264.8s30.33-11.15,35.79-56.9c-2.16,8.18-4.79,14.54-7.89,19.07-11.47,16.77-36.91,15.52-42.98-1.83-1.54-4.41-5.38-7.03-10.29-7.03h-4.34c-9.16,0-16.54,9.39-13.94,17.74,5.9,18.95,24.02,28.85,43.65,28.96h0Z"/>
            <g class="st43">
              <path class="st17" d="M73.28,264.8s30.33-11.15,35.79-56.9c-2.16,8.18-4.79,14.54-7.89,19.07-2.95,4.31-6.82,7.42-11.04,9.39-8.73,17.9-21.4,25.42-26.01,27.67,2.98.5,6.05.77,9.15.78Z"/>
            </g>
            <path class="st12" d="M79.4,177.64c-10.58-2.31-18.83-11.21-16.63-26.8,2.7-19.18,18.49-28.38,32.11-27.38,0,0-38.07-6.56-62.68,32.82-1.68,33.79,28.83,49.64,54.8,45.55,39.32-6.2,62.84-63.25,44.96-91.08,13.78,31.55-23,73.35-52.55,66.89Z"/>
            <g class="st47">
              <path class="st17" d="M112.75,189.22c-1.01,6.95-2.22,13.12-3.64,18.5,23.97-17.47,36.39-52.48,31-78.57-1.7-6.07-3.88-11.53-6.51-16.1-.1-.15-.21-.3-.31-.46.15.43.29.86.42,1.28,10.71,21.42.56,56.41-20.97,75.34Z"/>
            </g>
            <path class="st3" d="M94.87,123.47c27.67,2.05,26.1,41.09,4.26,52.14,21.55-7.92,45.01-36.93,32.81-64.85-5.13-6.26-12.04-10.85-21.11-13.05-29.9-7.26-71.97,9.42-78.15,53.36-.25,1.78-.42,3.52-.5,5.22,24.62-39.38,62.68-32.82,62.68-32.82h0Z"/>
            <g class="st49">
              <path class="st17" d="M32.52,165.23c10.71-16.02,23.69-23.87,34.93-27.63,6.31-10.13,17.45-14.87,27.42-14.13,0,0-38.07-6.56-62.68,32.82-.16,3.14-.03,6.12.33,8.95Z"/>
            </g>
          </g>
        </g>
      </g>
    </g>
    <g>
      <path class="st28" d="M298.77,257.82c-1.86-2-2.79-5.31-2.79-9.94,0-3.68.62-7.64,1.87-11.88,1.24-4.24,3.24-7.88,6-10.91,2.75-3.03,6.25-4.55,10.49-4.55,2.63,0,4.75.58,6.36,1.73,1.61,1.16,2.42,2.93,2.42,5.31,0,1.51-.3,2.69-.89,3.55-.6.86-1.53,1.29-2.79,1.29s-2.26-.46-3-1.37c.63-.32,1.19-.95,1.68-1.89.49-.95.74-1.93.74-2.95,0-.95-.25-1.72-.76-2.31-.51-.6-1.32-.89-2.44-.89-1.86,0-3.63,1.27-5.31,3.81-1.68,2.54-3.04,5.74-4.08,9.6-1.03,3.86-1.55,7.57-1.55,11.15,0,2.67.46,4.7,1.37,6.1.91,1.4,2.56,2.1,4.94,2.1,2.07,0,3.98-.45,5.73-1.37,1.75-.91,3.26-2.21,4.52-3.89l1.21.53c-.88,2.21-2.17,4.05-3.89,5.52-1.72,1.47-3.56,2.55-5.52,3.23-1.96.68-3.82,1.03-5.57,1.03-3.96,0-6.87-1-8.73-3Z"/>
      <path class="st25" d="M322.25,258.72c-1.03-1.05-1.55-2.63-1.55-4.73,0-.88.14-2.01.42-3.42l3.58-16.88h7.57l-3.79,17.88c-.11.53-.16,1.02-.16,1.47,0,1.44.53,2.16,1.58,2.16.98,0,1.82-.41,2.52-1.24.7-.82,1.26-1.95,1.68-3.39l3.58-16.88h7.57l-3.79,17.88c-.14.53-.21,1.09-.21,1.68,0,.7.17,1.2.5,1.5.33.3.88.45,1.66.45.98,0,1.83-.42,2.55-1.26.72-.84,1.29-1.96,1.71-3.37h2.21c-1.3,3.79-2.9,6.35-4.81,7.7-1.91,1.35-3.83,2.03-5.76,2.03-1.51,0-2.71-.42-3.6-1.26s-1.43-2.09-1.6-3.73c-1.19,1.93-2.45,3.24-3.76,3.94-1.31.7-2.66,1.05-4.02,1.05-1.68,0-3.04-.53-4.08-1.58Z"/>
      <path class="st26" d="M348.8,258.72c-1.03-1.05-1.55-2.63-1.55-4.73,0-.88.14-2.01.42-3.42l3.58-16.88h7.57l-3.79,17.88c-.14.53-.21,1.09-.21,1.68,0,.7.17,1.2.5,1.5.33.3.88.45,1.66.45,1.02,0,1.96-.43,2.84-1.29.88-.86,1.51-1.97,1.89-3.34h2.21c-1.3,3.79-2.96,6.35-5,7.7-2.03,1.35-4.05,2.03-6.05,2.03-1.68,0-3.04-.53-4.08-1.58ZM353.51,229.64c-.81-.81-1.21-1.79-1.21-2.94s.4-2.15,1.21-2.97c.81-.82,1.79-1.24,2.95-1.24s2.15.41,2.97,1.24c.82.82,1.24,1.81,1.24,2.97s-.41,2.14-1.24,2.94c-.82.81-1.81,1.21-2.97,1.21s-2.14-.4-2.95-1.21Z"/>
      <path class="st27" d="M363.03,258.24c-1.33-1.37-2-3.51-2-6.42,0-2.59.52-5.32,1.55-8.18,1.03-2.86,2.58-5.28,4.63-7.26,2.05-1.98,4.5-2.97,7.34-2.97,1.44,0,2.51.25,3.21.74.7.49,1.05,1.14,1.05,1.95v.21l2.58-12.09,7.78-1.05-6.05,28.4c-.14.53-.21,1.09-.21,1.68,0,.7.17,1.2.5,1.5.33.3.88.45,1.66.45.98,0,1.83-.42,2.55-1.26.72-.84,1.29-1.96,1.71-3.37h2.21c-2.14,6.28-5.66,9.41-10.57,9.41-1.44,0-2.6-.39-3.5-1.16-.89-.77-1.45-1.89-1.66-3.37-.91,1.4-2.01,2.56-3.29,3.47-1.28.91-2.78,1.37-4.5,1.37-2,0-3.66-.68-5-2.05ZM373.99,254.04c.86-.77,1.45-1.84,1.76-3.21v-.26l2.58-12.04c-.32-1.23-1.03-1.84-2.16-1.84-1.4,0-2.66.81-3.79,2.44-1.12,1.63-2,3.59-2.63,5.89-.63,2.3-.95,4.32-.95,6.07s.25,2.88.76,3.37c.51.49,1.13.74,1.87.74.84,0,1.69-.39,2.55-1.16Z"/>
      <path class="st24" d="M390.63,258.24c-1.33-1.37-2-3.51-2-6.42,0-2.59.52-5.32,1.55-8.18,1.03-2.86,2.58-5.28,4.63-7.26,2.05-1.98,4.5-2.97,7.34-2.97,1.44,0,2.51.25,3.21.74.7.49,1.05,1.14,1.05,1.95v.37l.58-2.79h7.57l-3.79,17.88c-.14.53-.21,1.09-.21,1.68,0,1.51.72,2.26,2.16,2.26.98,0,1.83-.46,2.55-1.37.72-.91,1.29-2.1,1.71-3.58h2.21c-1.3,3.79-2.9,6.35-4.81,7.7-1.91,1.35-3.83,2.03-5.76,2.03-1.47,0-2.66-.41-3.55-1.24-.89-.82-1.43-2.02-1.6-3.6-1.02,1.44-2.15,2.6-3.39,3.5-1.24.89-2.73,1.34-4.44,1.34-2,0-3.66-.68-5-2.05ZM401.65,253.96c.86-.82,1.45-1.95,1.76-3.39l2.52-11.88c0-.45-.18-.9-.53-1.34-.35-.44-.89-.66-1.63-.66-1.4,0-2.66.81-3.79,2.44-1.12,1.63-2,3.59-2.63,5.89-.63,2.3-.95,4.32-.95,6.07s.25,2.88.76,3.37c.51.49,1.13.74,1.87.74.88,0,1.74-.41,2.6-1.24Z"/>
      <path class="st29" d="M431.26,258.59c-1-1.14-1.5-2.55-1.5-4.23,0-.74.09-1.57.26-2.5.18-.93.36-1.83.55-2.71.19-.88.32-1.44.39-1.68.28-1.23.54-2.44.79-3.63.24-1.19.37-2.16.37-2.89,0-1.79-.63-2.68-1.89-2.68-.91,0-1.72.45-2.42,1.34-.7.89-1.26,2.06-1.68,3.5l-3.58,16.88h-7.57l5.57-26.29h7.57l-.58,2.73c1.75-1.96,3.8-2.95,6.15-2.95,1.79,0,3.21.49,4.26,1.47,1.05.98,1.58,2.47,1.58,4.47,0,1.02-.12,2.15-.37,3.39-.25,1.24-.6,2.76-1.05,4.55-.28,1.09-.53,2.15-.76,3.18-.23,1.03-.34,1.85-.34,2.44,0,.7.16,1.24.47,1.63.32.39.86.58,1.63.58,1.05,0,1.89-.38,2.52-1.13.63-.75,1.26-1.92,1.89-3.5h2.21c-1.3,3.86-2.8,6.44-4.5,7.76-1.7,1.31-3.46,1.97-5.28,1.97-2.14,0-3.71-.57-4.71-1.71Z"/>
      <path class="st35" d="M444.85,258.24c-1.33-1.37-2-3.51-2-6.42,0-2.59.52-5.32,1.55-8.18,1.03-2.86,2.58-5.28,4.63-7.26,2.05-1.98,4.5-2.97,7.34-2.97,1.44,0,2.51.25,3.21.74.7.49,1.05,1.14,1.05,1.95v.21l2.58-12.09,7.78-1.05-6.05,28.4c-.14.53-.21,1.09-.21,1.68,0,.7.17,1.2.5,1.5.33.3.88.45,1.66.45.98,0,1.83-.42,2.55-1.26.72-.84,1.29-1.96,1.71-3.37h2.21c-2.14,6.28-5.66,9.41-10.57,9.41-1.44,0-2.6-.39-3.5-1.16-.89-.77-1.45-1.89-1.66-3.37-.91,1.4-2.01,2.56-3.29,3.47-1.28.91-2.78,1.37-4.5,1.37-2,0-3.66-.68-5-2.05ZM455.81,254.04c.86-.77,1.45-1.84,1.76-3.21v-.26l2.58-12.04c-.32-1.23-1.03-1.84-2.16-1.84-1.4,0-2.66.81-3.79,2.44-1.12,1.63-2,3.59-2.63,5.89-.63,2.3-.95,4.32-.95,6.07s.25,2.88.76,3.37c.51.49,1.13.74,1.87.74.84,0,1.69-.39,2.55-1.16Z"/>
      <path class="st34" d="M472.67,258.19c-1.51-1.33-2.26-3.44-2.26-6.31,0-2.42.47-5.07,1.42-7.97s2.49-5.4,4.63-7.52c2.14-2.12,4.87-3.18,8.2-3.18,4.14,0,6.36,2.37,6.68,7.1.77-.17,1.45-.6,2.05-1.29.59-.68,1.16-1.46,1.68-2.34h1.68c-.95,1.89-1.79,3.37-2.52,4.44-.74,1.07-1.7,1.94-2.89,2.6-.21,3.3-.89,6.19-2.03,8.68-1.14,2.49-2.62,4.41-4.44,5.76-1.82,1.35-3.84,2.03-6.05,2.03-2.59,0-4.65-.67-6.15-2ZM484.55,252.3c1.12-2.1,1.89-4.7,2.31-7.78-.84-.32-1.26-1.1-1.26-2.37,0-1.37.49-2.28,1.47-2.73-.07-1.12-.26-1.9-.55-2.34-.3-.44-.78-.66-1.45-.66-1.16,0-2.26.83-3.31,2.5-1.05,1.67-1.9,3.68-2.55,6.05-.65,2.37-.97,4.44-.97,6.23,0,1.68.19,2.81.58,3.39.39.58,1.09.87,2.1.87,1.3,0,2.51-1.05,3.63-3.16Z"/>
      <path class="st31" d="M509.48,258.24c-1.33-1.37-2-3.51-2-6.42,0-2.59.52-5.32,1.55-8.18,1.03-2.86,2.58-5.28,4.63-7.26,2.05-1.98,4.5-2.97,7.34-2.97,1.44,0,2.51.25,3.21.74.7.49,1.05,1.14,1.05,1.95v.21l2.58-12.09,7.78-1.05-6.05,28.4c-.14.53-.21,1.09-.21,1.68,0,.7.17,1.2.5,1.5.33.3.88.45,1.66.45.98,0,1.83-.42,2.55-1.26.72-.84,1.29-1.96,1.71-3.37h2.21c-2.14,6.28-5.66,9.41-10.57,9.41-1.44,0-2.6-.39-3.5-1.16-.89-.77-1.45-1.89-1.66-3.37-.91,1.4-2.01,2.56-3.29,3.47-1.28.91-2.78,1.37-4.5,1.37-2,0-3.66-.68-5-2.05ZM520.44,254.04c.86-.77,1.45-1.84,1.76-3.21v-.26l2.58-12.04c-.32-1.23-1.03-1.84-2.16-1.84-1.4,0-2.67.81-3.79,2.44-1.12,1.63-2,3.59-2.63,5.89-.63,2.3-.95,4.32-.95,6.07s.25,2.88.76,3.37c.51.49,1.13.74,1.87.74.84,0,1.69-.39,2.55-1.16Z"/>
      <path class="st30" d="M537.19,258.27c-1.44-1.35-2.16-3.46-2.16-6.34,0-2.42.47-5.08,1.42-7.99.95-2.91,2.49-5.42,4.63-7.55,2.14-2.12,4.85-3.18,8.15-3.18,3.86,0,5.78,1.68,5.78,5.05,0,1.96-.56,3.77-1.68,5.42-1.12,1.65-2.61,2.97-4.47,3.97-1.86,1-3.84,1.57-5.94,1.71-.07.77-.1,1.3-.1,1.58,0,2.91,1.09,4.36,3.26,4.36.98,0,2.03-.26,3.16-.79,1.12-.53,2.14-1.19,3.05-2-.95,5.19-3.98,7.78-9.1,7.78-2.56,0-4.56-.68-6-2.03ZM547.05,245.52c1.17-.84,2.12-1.92,2.84-3.23.72-1.31,1.08-2.69,1.08-4.13s-.44-2.16-1.31-2.16c-1.23,0-2.45,1.11-3.66,3.34-1.21,2.23-2.11,4.72-2.71,7.49,1.33-.03,2.59-.47,3.76-1.32Z"/>
      <path class="st32" d="M567.67,258.74c-1.14-1.03-1.71-2.59-1.71-4.65,0-.84.09-1.68.26-2.52l3.79-17.88h7.57l-3.79,17.88c-.18.88-.26,1.51-.26,1.89,0,1.16.6,1.73,1.79,1.73,1.61,0,3.11-1.02,4.5-3.05,1.39-2.03,2.5-4.45,3.34-7.26.84-2.8,1.26-5.22,1.26-7.26-.07.18-.3.31-.68.39-.39.09-.72.13-1,.13-.6,0-1.06-.28-1.39-.84-.33-.56-.5-1.17-.5-1.84,0-.84.27-1.52.82-2.05.54-.53,1.36-.79,2.44-.79,1.16,0,2,.43,2.52,1.29.53.86.79,1.95.79,3.29,0,3.16-.54,6.53-1.63,10.12-1.09,3.59-2.75,6.65-5,9.18-2.24,2.52-5.03,3.79-8.36,3.79-2.03,0-3.62-.52-4.76-1.55Z"/>
      <path class="st33" d="M589.33,258.72c-1.03-1.05-1.55-2.63-1.55-4.73,0-.88.14-2.01.42-3.42l3.58-16.88h7.57l-3.79,17.88c-.14.53-.21,1.09-.21,1.68,0,.7.17,1.2.5,1.5.33.3.88.45,1.66.45,1.02,0,1.96-.43,2.84-1.29.88-.86,1.51-1.97,1.89-3.34h2.21c-1.3,3.79-2.96,6.35-5,7.7-2.03,1.35-4.05,2.03-6.05,2.03-1.68,0-3.04-.53-4.08-1.58ZM594.04,229.64c-.81-.81-1.21-1.79-1.21-2.94s.4-2.15,1.21-2.97c.81-.82,1.79-1.24,2.94-1.24s2.15.41,2.97,1.24c.82.82,1.24,1.81,1.24,2.97s-.41,2.14-1.24,2.94c-.82.81-1.81,1.21-2.97,1.21s-2.14-.4-2.94-1.21Z"/>
      <path class="st37" d="M603.56,258.24c-1.33-1.37-2-3.51-2-6.42,0-2.59.52-5.32,1.55-8.18,1.03-2.86,2.58-5.28,4.63-7.26,2.05-1.98,4.5-2.97,7.34-2.97,1.44,0,2.51.25,3.21.74.7.49,1.05,1.14,1.05,1.95v.21l2.58-12.09,7.78-1.05-6.05,28.4c-.14.53-.21,1.09-.21,1.68,0,.7.17,1.2.5,1.5.33.3.88.45,1.66.45.98,0,1.83-.42,2.55-1.26.72-.84,1.29-1.96,1.71-3.37h2.21c-2.14,6.28-5.66,9.41-10.57,9.41-1.44,0-2.6-.39-3.5-1.16-.89-.77-1.45-1.89-1.66-3.37-.91,1.4-2.01,2.56-3.29,3.47-1.28.91-2.78,1.37-4.5,1.37-2,0-3.66-.68-5-2.05ZM614.52,254.04c.86-.77,1.45-1.84,1.76-3.21v-.26l2.58-12.04c-.32-1.23-1.03-1.84-2.16-1.84-1.4,0-2.67.81-3.79,2.44-1.12,1.63-2,3.59-2.63,5.89-.63,2.3-.95,4.32-.95,6.07s.25,2.88.76,3.37c.51.49,1.13.74,1.87.74.84,0,1.69-.39,2.55-1.16Z"/>
      <path class="st36" d="M631.16,258.24c-1.33-1.37-2-3.51-2-6.42,0-2.59.52-5.32,1.55-8.18,1.03-2.86,2.58-5.28,4.63-7.26,2.05-1.98,4.5-2.97,7.34-2.97,1.44,0,2.51.25,3.21.74.7.49,1.05,1.14,1.05,1.95v.37l.58-2.79h7.57l-3.79,17.88c-.14.53-.21,1.09-.21,1.68,0,1.51.72,2.26,2.16,2.26.98,0,1.83-.46,2.55-1.37s1.29-2.1,1.71-3.58h2.21c-1.3,3.79-2.9,6.35-4.81,7.7-1.91,1.35-3.83,2.03-5.76,2.03-1.47,0-2.66-.41-3.55-1.24-.89-.82-1.43-2.02-1.6-3.6-1.02,1.44-2.15,2.6-3.39,3.5-1.24.89-2.73,1.34-4.44,1.34-2,0-3.66-.68-5-2.05ZM642.18,253.96c.86-.82,1.45-1.95,1.76-3.39l2.52-11.88c0-.45-.18-.9-.53-1.34-.35-.44-.89-.66-1.63-.66-1.4,0-2.67.81-3.79,2.44-1.12,1.63-2,3.59-2.63,5.89-.63,2.3-.95,4.32-.95,6.07s.25,2.88.76,3.37c.51.49,1.13.74,1.87.74.88,0,1.74-.41,2.6-1.24Z"/>
      <path class="st22" d="M659.24,259.32c-1.16-.65-2.02-1.49-2.58-2.52-.56-1.03-.84-2.11-.84-3.23s.27-2.16.81-3.02c.54-.86,1.2-1.48,1.97-1.87,1.37-2.45,2.56-4.93,3.58-7.44s1.98-5.21,2.89-8.12l7.78-1.05c.18,4.49.47,9.34.89,14.57.17,2.1.26,3.63.26,4.58,0,2.14-.54,3.89-1.63,5.26-1.09,1.37-2.43,2.35-4.02,2.95-1.6.6-3.22.89-4.86.89s-3.1-.32-4.26-.97ZM665.08,254.98c.88-.77,1.32-2.02,1.32-3.73,0-1.05-.11-2.52-.32-4.42-.35-4-.58-6.68-.68-8.05-.84,2.77-2.26,6.08-4.26,9.94.81.42,1.21,1.03,1.21,1.84,0,.67-.22,1.26-.66,1.79-.44.53-.99.79-1.66.79-.74,0-1.21-.23-1.42-.68,0,1.26.25,2.19.76,2.79.51.6,1.32.89,2.45.89,1.3,0,2.38-.39,3.26-1.16Z"/>
    </g>
    <g>
      <path class="st23" d="M315.12,199.4c-5.26-5.4-7.89-13.85-7.89-25.34,0-10.25,2.05-21.01,6.13-32.3,4.08-11.29,10.18-20.84,18.28-28.66,8.1-7.82,17.76-11.74,28.98-11.74,5.68,0,9.9.97,12.67,2.91,2.77,1.94,4.15,4.5,4.15,7.69v1.45l2.29-11.01h29.91l-14.96,70.62c-.55,2.08-.83,4.29-.83,6.65,0,5.96,2.84,8.93,8.52,8.93,3.88,0,7.23-1.8,10.07-5.4,2.84-3.6,5.09-8.31,6.75-14.12h8.72c-5.13,14.95-11.46,25.1-19.01,30.43-7.55,5.33-15.13,8-22.74,8-5.82,0-10.49-1.63-14.02-4.88-3.53-3.25-5.64-8-6.34-14.23-4.02,5.68-8.48,10.28-13.4,13.81-4.92,3.53-10.77,5.3-17.55,5.3-7.89,0-14.47-2.7-19.73-8.1ZM358.64,182.47c3.39-3.25,5.71-7.72,6.96-13.4l9.97-46.94c0-1.8-.69-3.56-2.08-5.3-1.39-1.73-3.53-2.6-6.44-2.6-5.54,0-10.53,3.22-14.96,9.66-4.43,6.44-7.89,14.2-10.39,23.26-2.49,9.07-3.74,17.07-3.74,23.99s1,11.36,3.01,13.29c2.01,1.94,4.47,2.91,7.37,2.91,3.46,0,6.89-1.63,10.28-4.88Z"/>
      <path class="st21" d="M475.58,200.75c-3.95-4.5-5.92-10.07-5.92-16.72,0-2.91.34-6.19,1.04-9.87.69-3.67,1.42-7.24,2.18-10.7.76-3.46,1.28-5.68,1.56-6.65,1.11-4.84,2.15-9.62,3.12-14.33.97-4.71,1.45-8.52,1.45-11.42,0-7.06-2.49-10.59-7.48-10.59-3.6,0-6.79,1.77-9.56,5.3-2.77,3.53-4.99,8.14-6.65,13.81l-14.12,66.68h-29.91l22.02-103.86h29.91l-2.29,10.8c6.92-7.75,15.02-11.63,24.3-11.63,7.06,0,12.67,1.94,16.82,5.82,4.15,3.88,6.23,9.76,6.23,17.66,0,4.02-.49,8.48-1.45,13.4-.97,4.92-2.36,10.9-4.15,17.97-1.11,4.29-2.11,8.48-3.01,12.57-.9,4.09-1.35,7.31-1.35,9.66,0,2.77.62,4.92,1.87,6.44,1.25,1.53,3.39,2.28,6.44,2.28,4.15,0,7.48-1.49,9.97-4.47,2.49-2.98,4.99-7.58,7.48-13.81h8.72c-5.13,15.23-11.05,25.44-17.76,30.64-6.72,5.19-13.68,7.79-20.87,7.79-8.45,0-14.64-2.25-18.59-6.75Z"/>
      <path class="st20" d="M613.91,199.6c-4.09-5.26-6.13-11.84-6.13-19.73,0-5.82,1.52-10.56,4.57-14.23,3.04-3.67,6.51-5.51,10.39-5.51,7.2,0,10.8,2.91,10.8,8.72,0,2.49-.97,4.67-2.91,6.54-1.94,1.87-4.29,2.8-7.06,2.8-2.91,0-4.78-.9-5.61-2.7,0,4.99,1,8.83,3.01,11.53,2.01,2.7,5.02,4.05,9.04,4.05,4.71,0,8.06-1.42,10.07-4.26,2.01-2.84,3.01-7.86,3.01-15.06,0-4.15-.42-9.42-1.25-15.79-1.39-13.29-2.49-26.86-3.32-40.71-9.83,15.1-21.47,24.65-34.9,28.66-.83,12.74-3.53,23.89-8.1,33.44-4.57,9.55-10.42,16.9-17.55,22.02-7.13,5.13-14.99,7.69-23.58,7.69-10.25,0-18.35-2.63-24.3-7.89-5.96-5.26-8.93-13.57-8.93-24.93,0-9.55,1.87-20.04,5.61-31.47,3.74-11.42,9.83-21.32,18.28-29.7,8.45-8.38,19.25-12.57,32.4-12.57,17.58,0,26.45,10.87,26.59,32.61,10.25-.55,21.53-11.56,33.86-33.03l30.74-4.15c.69,17.73,1.87,36.9,3.53,57.54.69,8.31,1.04,14.33,1.04,18.07,0,12.46-3.6,21.57-10.8,27.31-7.2,5.75-15.79,8.62-25.76,8.62-11.08,0-18.66-2.63-22.74-7.89ZM577.04,176.03c4.43-8.24,7.48-18.45,9.14-30.64-3.32-1.25-4.99-4.36-4.99-9.35,0-5.4,1.94-9,5.82-10.8-.28-4.43-1.01-7.55-2.18-9.35-1.18-1.8-3.08-2.7-5.71-2.7-4.57,0-8.93,3.29-13.09,9.87-4.15,6.58-7.51,14.54-10.07,23.89-2.56,9.35-3.84,17.55-3.84,24.61,0,6.65.76,11.11,2.28,13.4,1.52,2.29,4.29,3.43,8.31,3.43,5.12,0,9.9-4.12,14.33-12.36Z"/>
    </g>
  </g>
  <g id="Logo_FAHZ">
    <g class="st55">
      <g class="st51">
        <path class="st2" d="M163.78,59.19c3.95-9.81,2.71-21.4-4.26-30.33-6.98-8.93-17.92-12.94-28.4-11.48l6.14-4.14c10.57.01,20.86,5.5,26.52,15.32,5.67,9.82,5.28,21.47,0,30.63"/>
        <path class="st41" d="M132.89,13.24c-5.15.72-10.19,2.77-14.59,6.2-13.33,10.41-15.69,29.66-5.28,42.99l-6.65-3.24c-8.46-14.65-3.44-33.38,11.21-41.84,4.83-2.79,10.11-4.11,15.31-4.11"/>
        <path class="st19" d="M108.55,63.55c10.41,13.33,29.66,15.69,42.99,5.28,4.4-3.43,7.6-7.83,9.54-12.66l.52,7.38c-2.6,4.51-6.38,8.42-11.21,11.21-14.65,8.46-33.38,3.44-41.84-11.21"/>
        <path class="st2" d="M156.24,37.9c-2.95-6.94-9.42-12.15-17.44-13.14-8.02-.98-15.56,2.51-20.1,8.53l1.01-5.18c5.33-5.33,13.29-7.74,21.09-5.65,7.8,2.09,13.48,8.16,15.44,15.44"/>
        <path class="st41" d="M117.51,30.31c-2.24,2.96-3.75,6.53-4.23,10.48-1.47,11.97,7.04,22.86,19.01,24.33l-4.99,1.71c-11.65-3.12-18.56-15.09-15.44-26.74,1.03-3.84,3.02-7.17,5.65-9.79"/>
        <path class="st19" d="M130.6,67.94c11.97,1.47,22.86-7.04,24.33-19.01.49-3.95-.12-7.78-1.57-11.19l3.98,3.46c.96,3.58,1.03,7.46,0,11.3-3.12,11.65-15.09,18.56-26.74,15.44"/>
        <path class="st2" d="M141.46,31.43c-4.69-1.89-10.24-1.3-14.52,2.04-4.27,3.34-6.19,8.58-5.49,13.59l-1.98-2.94c0-5.06,2.63-9.98,7.33-12.69,4.7-2.71,10.27-2.53,14.66,0"/>
        <path class="st41" d="M119.47,46.21c.34,2.47,1.32,4.88,2.97,6.98,4.98,6.38,14.2,7.51,20.58,2.53l-1.55,3.18c-7.01,4.05-15.98,1.65-20.02-5.36-1.33-2.31-1.97-4.84-1.97-7.33"/>
        <path class="st19" d="M143.55,57.86c6.38-4.98,7.51-14.19,2.53-20.57-1.64-2.11-3.75-3.64-6.06-4.57l3.53-.25c2.16,1.24,4.03,3.06,5.36,5.37,4.05,7.01,1.65,15.98-5.36,20.03"/>
        <path class="st41" d="M194.82,35.82c-.13-.65-.24-1.28-.34-1.9-.1-.62-.18-1.23-.24-1.85h-7.83v10.16h6.47c.16-1.1.36-2.11.58-3.01h3.31v10.06h-3.31c-.23-.91-.42-1.91-.58-3.01h-6.47v10.55c.75.07,1.47.15,2.19.24.71.1,1.39.23,2.04.39v3.21h-13.66v-3.21c.65-.16,1.33-.29,2.04-.39.71-.1,1.44-.18,2.19-.24v-25.13c-.75-.06-1.48-.15-2.19-.24-.71-.1-1.39-.23-2.04-.39v-3.21h21.68v7.97h-3.84Z"/>
        <path class="st41" d="M228.46,60.32c-1.26.16-2.71.28-4.33.34-1.62.06-3.16.06-4.62,0,0-.68.02-1.46.07-2.33.05-.87.14-1.67.27-2.38l-.1-.05c-.75,1.56-1.82,2.82-3.23,3.79-1.41.97-3.13,1.46-5.18,1.46-1.36,0-2.5-.2-3.43-.61-.92-.4-1.67-.96-2.24-1.65-.57-.7-.97-1.51-1.19-2.45-.23-.94-.34-1.94-.34-3.01v-12.88c-.58-.1-1.24-.19-1.97-.27-.73-.08-1.42-.15-2.07-.22v-3.21c1.26-.16,2.72-.28,4.36-.34,1.65-.06,3.27-.06,4.87,0v15.56c0,1.52.25,2.7.75,3.52.5.83,1.44,1.24,2.83,1.24.9,0,1.74-.23,2.51-.68.77-.45,1.43-1.07,1.98-1.85.55-.78.98-1.69,1.31-2.75.32-1.05.48-2.18.48-3.38v-7.68c-.52-.06-1.11-.14-1.77-.22-.66-.08-1.32-.15-1.97-.22v-3.21c1.3-.16,2.73-.28,4.3-.34,1.57-.06,3.12-.06,4.64,0v20.12c.58.1,1.24.19,1.97.27.73.08,1.42.15,2.07.22v3.21Z"/>
        <path class="st41" d="M248.82,45.1c0-1.52-.25-2.7-.75-3.52-.5-.83-1.44-1.24-2.83-1.24-.9,0-1.73.23-2.49.68-.76.45-1.42,1.07-1.98,1.85-.56.78-1.01,1.69-1.33,2.75-.32,1.05-.48,2.18-.48,3.38v7.83c.65.07,1.3.14,1.94.22.65.08,1.25.2,1.8.36v3.26h-13.17v-3.21c.65-.16,1.33-.29,2.04-.39.71-.1,1.44-.18,2.19-.24v-16.28c-.58-.1-1.26-.19-2.02-.27-.76-.08-1.5-.15-2.21-.22v-3.21c1.36-.16,2.86-.27,4.51-.34,1.64-.06,3.22-.06,4.73,0,0,.65-.03,1.43-.1,2.33-.07.91-.16,1.7-.29,2.38l.1.05c.71-1.56,1.77-2.82,3.17-3.79,1.4-.97,3.13-1.46,5.16-1.46,1.36,0,2.5.2,3.44.61.94.41,1.68.96,2.23,1.65.55.7.95,1.52,1.19,2.45.24.94.36,1.94.36,3.01v13.08c.71.07,1.41.15,2.09.24.68.1,1.33.23,1.94.39v3.21h-9.24v-15.56Z"/>
        <path class="st41" d="M285.04,60.27c-1.26.16-2.71.28-4.34.34-1.63.06-3.18.06-4.65,0,0-.65.02-1.39.07-2.24.05-.84.14-1.59.27-2.24h-.1c-.65,1.49-1.65,2.7-3.01,3.62-1.36.92-2.97,1.38-4.85,1.38-2.97,0-5.2-1.02-6.67-3.06-1.47-2.04-2.21-4.81-2.21-8.31,0-2.07.29-3.95.87-5.64.58-1.68,1.41-3.12,2.5-4.3,1.08-1.18,2.41-2.1,3.97-2.75,1.57-.65,3.32-.97,5.26-.97.58,0,1.17.02,1.77.05.6.03,1.22.08,1.87.15v-7.1c-.58-.1-1.26-.19-2.02-.27-.76-.08-1.5-.15-2.21-.22v-3.21c1.36-.16,2.87-.27,4.53-.34,1.66-.06,3.29-.06,4.9,0v31.4c.58.1,1.24.19,1.97.27.73.08,1.42.15,2.07.22v3.21ZM275.8,40.68c-1.33-.29-2.61-.44-3.84-.44-2.08,0-3.75.7-5.03,2.08-1.28,1.39-1.92,3.7-1.92,6.93,0,2.42.39,4.29,1.17,5.6.78,1.31,1.99,1.96,3.65,1.96.97,0,1.82-.26,2.55-.78.73-.52,1.35-1.19,1.87-2.01.52-.82.91-1.75,1.17-2.79.26-1.03.39-2.07.39-3.1v-7.46Z"/>
        <path class="st41" d="M310.36,60.32c-1.26.16-2.71.28-4.33.34-1.62.06-3.14.06-4.57,0,0-.78.02-1.56.05-2.33.03-.78.1-1.49.19-2.14l-.05-.05c-.58,1.46-1.58,2.66-2.99,3.6-1.41.94-3.09,1.41-5.03,1.41-2.07,0-3.72-.54-4.93-1.63-1.21-1.09-1.82-2.6-1.82-4.55,0-1.39.33-2.63,1-3.7.66-1.07,1.62-1.97,2.87-2.7,1.25-.73,2.75-1.29,4.5-1.68,1.75-.39,3.71-.58,5.88-.58v-1.7c0-1.52-.34-2.67-1.02-3.45s-1.95-1.17-3.79-1.17c-1.39,0-2.72.18-3.99.53-.07.55-.15,1.13-.24,1.73-.1.6-.19,1.22-.29,1.87h-3.26v-6.85c1.2-.39,2.5-.7,3.91-.95,1.41-.24,2.89-.36,4.45-.36,1.85,0,3.38.19,4.59.58,1.22.39,2.18.94,2.89,1.65.71.71,1.22,1.58,1.51,2.6.29,1.02.44,2.15.44,3.38v12.44c.58.1,1.24.19,1.97.27.73.08,1.42.15,2.07.22v3.21ZM301.13,49.77c-1.75,0-3.22.11-4.4.34-1.18.23-2.13.54-2.84.95-.71.41-1.22.87-1.53,1.39-.31.52-.46,1.07-.46,1.65,0,.94.29,1.68.87,2.21.58.53,1.39.8,2.43.8.87,0,1.68-.2,2.41-.58.73-.39,1.35-.91,1.87-1.55.52-.65.92-1.38,1.21-2.19.29-.81.44-1.65.44-2.53v-.49Z"/>
        <path class="st41" d="M330.29,59.83c-.94.32-1.99.61-3.16.85-1.17.24-2.46.37-3.89.37-1.62,0-3.12-.2-4.5-.61-1.38-.4-2.57-1.07-3.57-1.99-1-.92-1.78-2.13-2.35-3.62-.57-1.49-.86-3.31-.86-5.44,0-1.91.25-3.68.76-5.3.51-1.62,1.28-3.02,2.3-4.2,1.03-1.18,2.32-2.11,3.88-2.77,1.56-.66,3.39-1,5.5-1,.94,0,1.92.07,2.94.22,1.02.15,1.95.35,2.79.61v7.39h-3.3c-.13-.65-.24-1.28-.32-1.9-.08-.62-.15-1.2-.22-1.75-.36-.1-.76-.18-1.22-.24-.45-.06-.91-.1-1.36-.1-2.01,0-3.56.75-4.67,2.24-1.1,1.49-1.65,3.5-1.65,6.03,0,1.17.11,2.24.34,3.23.23.99.61,1.83,1.14,2.53.53.7,1.25,1.24,2.14,1.63.89.39,2,.58,3.33.58.94,0,1.9-.11,2.89-.34.99-.23,1.89-.52,2.7-.87l.34,4.47Z"/>
        <path class="st41" d="M324.75,60.44c.39.81.65,1.63.78,2.45.13.83.04,1.64-.27,2.45-.31.81-.87,1.6-1.68,2.36-.81.76-1.93,1.48-3.35,2.16l-2.38-2.04c1.56-1.1,2.47-2.27,2.75-3.5.27-1.23.04-2.53-.71-3.89h4.86Z"/>
        <path class="st41" d="M356.16,60.32c-1.26.16-2.71.28-4.33.34-1.62.06-3.14.06-4.57,0,0-.78.02-1.56.05-2.33.03-.78.1-1.49.19-2.14l-.05-.05c-.58,1.46-1.58,2.66-2.99,3.6-1.41.94-3.09,1.41-5.03,1.41-2.07,0-3.72-.54-4.93-1.63-1.22-1.09-1.82-2.6-1.82-4.55,0-1.39.33-2.63,1-3.7.66-1.07,1.62-1.97,2.87-2.7,1.25-.73,2.75-1.29,4.5-1.68,1.75-.39,3.71-.58,5.88-.58v-1.7c0-1.52-.34-2.67-1.02-3.45-.68-.78-1.94-1.17-3.79-1.17-1.39,0-2.72.18-3.99.53-.06.55-.15,1.13-.24,1.73-.1.6-.19,1.22-.29,1.87h-3.26v-6.85c1.2-.39,2.5-.7,3.91-.95,1.41-.24,2.89-.36,4.45-.36,1.85,0,3.38.19,4.59.58,1.22.39,2.18.94,2.89,1.65.71.71,1.22,1.58,1.51,2.6.29,1.02.44,2.15.44,3.38v12.44c.58.1,1.24.19,1.97.27.73.08,1.42.15,2.07.22v3.21ZM351.29,30.18c-.48.49-1.17.94-2.07,1.36-.89.42-1.79.63-2.7.63s-1.66-.12-2.26-.37c-.6-.24-1.16-.51-1.68-.8-.52-.29-1.04-.56-1.56-.8-.52-.24-1.13-.37-1.85-.37-.65,0-1.24.15-1.77.46-.54.31-1.03.69-1.48,1.14l-1.12-3.5c.65-.58,1.38-1.07,2.19-1.46.81-.39,1.69-.58,2.62-.58.84,0,1.56.12,2.16.36.6.24,1.16.52,1.68.83.52.31,1.04.58,1.56.83.52.24,1.12.36,1.8.36s1.3-.15,1.87-.46c.57-.31,1.08-.67,1.53-1.09l1.07,3.45ZM346.92,49.77c-1.75,0-3.22.11-4.4.34-1.18.23-2.13.54-2.84.95-.71.41-1.22.87-1.53,1.39-.31.52-.46,1.07-.46,1.65,0,.94.29,1.68.87,2.21.58.53,1.39.8,2.43.8.88,0,1.68-.2,2.41-.58.73-.39,1.35-.91,1.87-1.55.52-.65.92-1.38,1.22-2.19.29-.81.44-1.65.44-2.53v-.49Z"/>
        <path class="st41" d="M380.75,48.12c0,1.85-.29,3.56-.87,5.15-.58,1.59-1.4,2.97-2.46,4.13-1.05,1.17-2.32,2.08-3.79,2.75-1.48.66-3.1,1-4.89,1-1.69,0-3.21-.24-4.57-.73-1.36-.49-2.53-1.22-3.5-2.21-.97-.99-1.72-2.25-2.24-3.79-.52-1.54-.78-3.38-.78-5.52,0-1.82.28-3.51.85-5.08.57-1.57,1.38-2.93,2.43-4.08,1.05-1.15,2.32-2.06,3.79-2.72,1.48-.66,3.14-1,4.98-1,1.62,0,3.1.24,4.45.7,1.34.47,2.5,1.19,3.48,2.16.97.97,1.73,2.22,2.28,3.74.55,1.52.83,3.35.83,5.49M375.4,48.43c0-2.6-.5-4.6-1.5-6-1-1.4-2.53-2.1-4.6-2.1-.78,0-1.53.15-2.28.46-.74.31-1.4.79-1.99,1.44-.58.65-1.05,1.48-1.4,2.49-.36,1.01-.53,2.21-.53,3.61,0,2.76.52,4.84,1.55,6.24,1.03,1.4,2.57,2.1,4.6,2.1.84,0,1.63-.16,2.37-.49.74-.32,1.4-.83,1.96-1.51.57-.68,1.01-1.54,1.33-2.58.32-1.04.48-2.26.48-3.66"/>
        <path class="st41" d="M392.85,60.66v-4.04l13.37-20.85c.42-.65.82-1.26,1.19-1.82.37-.57.79-1.14,1.24-1.73-.68.03-1.51.06-2.48.07-.97.02-2.09.02-3.35.02h-5.1c-.1,1.2-.29,2.51-.58,3.94h-3.89v-8.41h21.58v4.18l-14.14,21.53c-.29.45-.57.89-.83,1.31-.26.42-.57.86-.92,1.31.45-.06,1.25-.1,2.38-.1h9.14c.13-1.13.32-2.51.58-4.13h3.84v8.7h-22.02Z"/>
        <path class="st41" d="M438.45,46.46c0,.71-.05,1.52-.15,2.43h-15.41c-.06,2.82.5,4.88,1.7,6.17,1.2,1.3,3.01,1.94,5.44,1.94,1.23,0,2.46-.14,3.69-.41,1.23-.27,2.35-.66,3.35-1.14l.49,4.13c-1.23.52-2.56.91-3.98,1.17-1.43.26-2.89.39-4.38.39-3.79,0-6.68-1-8.68-2.99-1.99-1.99-2.99-5.13-2.99-9.41,0-1.81.24-3.5.73-5.06.49-1.56,1.2-2.9,2.14-4.03.94-1.13,2.1-2.02,3.48-2.67,1.38-.65,2.94-.97,4.69-.97s3.2.28,4.45.83c1.25.55,2.27,1.31,3.06,2.26.79.96,1.39,2.07,1.77,3.33.39,1.26.58,2.61.58,4.03M433.25,45.25c.06-1.65-.34-2.97-1.22-3.94-.88-.97-2.09-1.46-3.65-1.46-1.46,0-2.67.49-3.62,1.46-.96.97-1.55,2.28-1.77,3.94h10.26Z"/>
        <path class="st41" d="M457.8,41.12c-2.66-.45-4.6.15-5.83,1.8-1.23,1.65-1.85,4.29-1.85,7.92v5.98c.75.07,1.47.15,2.19.24.71.1,1.39.23,2.04.39v3.21h-13.66v-3.21c.65-.16,1.33-.29,2.04-.39.71-.1,1.44-.18,2.19-.24v-16.28c-.58-.1-1.26-.19-2.02-.27-.76-.08-1.5-.15-2.21-.22v-3.21c1.36-.16,2.86-.27,4.51-.34,1.65-.06,3.22-.06,4.73,0,0,.68-.04,1.51-.12,2.48-.08.97-.2,1.93-.37,2.87h.05c.3-.81.67-1.59,1.12-2.33.45-.75,1.02-1.4,1.7-1.97.68-.57,1.49-.99,2.43-1.26.94-.27,2.04-.36,3.31-.27l-.24,5.1Z"/>
        <path class="st41" d="M476.02,41.12c-2.66-.45-4.6.15-5.83,1.8-1.23,1.65-1.85,4.29-1.85,7.92v5.98c.75.07,1.47.15,2.19.24.71.1,1.39.23,2.04.39v3.21h-13.66v-3.21c.65-.16,1.33-.29,2.04-.39.71-.1,1.44-.18,2.19-.24v-16.28c-.58-.1-1.26-.19-2.02-.27-.76-.08-1.5-.15-2.21-.22v-3.21c1.36-.16,2.86-.27,4.51-.34,1.64-.06,3.22-.06,4.73,0,0,.68-.04,1.51-.12,2.48-.08.97-.21,1.93-.37,2.87h.05c.29-.81.67-1.59,1.12-2.33.45-.75,1.02-1.4,1.7-1.97.68-.57,1.49-.99,2.43-1.26.94-.27,2.04-.36,3.31-.27l-.24,5.1Z"/>
        <path class="st41" d="M498.53,46.46c0,.71-.05,1.52-.15,2.43h-15.41c-.07,2.82.5,4.88,1.7,6.17,1.2,1.3,3.01,1.94,5.44,1.94,1.23,0,2.46-.14,3.69-.41,1.23-.27,2.35-.66,3.35-1.14l.49,4.13c-1.23.52-2.56.91-3.99,1.17-1.43.26-2.89.39-4.38.39-3.79,0-6.68-1-8.68-2.99-1.99-1.99-2.99-5.13-2.99-9.41,0-1.81.24-3.5.73-5.06.49-1.56,1.2-2.9,2.14-4.03.94-1.13,2.1-2.02,3.47-2.67,1.38-.65,2.94-.97,4.69-.97s3.2.28,4.45.83c1.25.55,2.27,1.31,3.06,2.26.79.96,1.39,2.07,1.77,3.33.39,1.26.58,2.61.58,4.03M493.33,45.25c.06-1.65-.34-2.97-1.22-3.94-.87-.97-2.09-1.46-3.65-1.46-1.46,0-2.66.49-3.62,1.46-.96.97-1.55,2.28-1.77,3.94h10.26Z"/>
        <path class="st41" d="M520.06,45.1c0-1.52-.25-2.7-.75-3.52-.5-.83-1.44-1.24-2.83-1.24-.9,0-1.73.23-2.49.68-.76.45-1.42,1.07-1.98,1.85s-1.01,1.69-1.33,2.75c-.32,1.05-.48,2.18-.48,3.38v7.83c.65.07,1.3.14,1.94.22.65.08,1.25.2,1.8.36v3.26h-13.17v-3.21c.65-.16,1.33-.29,2.04-.39.71-.1,1.44-.18,2.19-.24v-16.28c-.58-.1-1.26-.19-2.02-.27-.76-.08-1.5-.15-2.21-.22v-3.21c1.36-.16,2.86-.27,4.51-.34,1.65-.06,3.22-.06,4.73,0,0,.65-.03,1.43-.1,2.33-.07.91-.16,1.7-.3,2.38l.1.05c.71-1.56,1.77-2.82,3.18-3.79,1.4-.97,3.13-1.46,5.16-1.46,1.36,0,2.5.2,3.44.61.94.41,1.68.96,2.23,1.65.55.7.94,1.52,1.19,2.45.24.94.36,1.94.36,3.01v13.08c.71.07,1.41.15,2.09.24.68.1,1.33.23,1.94.39v3.21h-9.24v-15.56Z"/>
        <path class="st41" d="M549.62,45.1c0-1.52-.25-2.7-.75-3.52-.5-.83-1.44-1.24-2.83-1.24-.9,0-1.73.23-2.49.68-.76.45-1.42,1.07-1.98,1.85s-1.01,1.69-1.33,2.75c-.32,1.05-.48,2.18-.48,3.38v7.83c.65.07,1.3.14,1.95.22.65.08,1.25.2,1.8.36v3.26h-13.17v-3.21c.65-.16,1.33-.29,2.04-.39.71-.1,1.44-.18,2.19-.24v-16.28c-.58-.1-1.26-.19-2.02-.27-.76-.08-1.5-.15-2.21-.22v-3.21c1.36-.16,2.86-.27,4.51-.34,1.65-.06,3.22-.06,4.73,0,0,.65-.03,1.43-.1,2.33-.07.91-.16,1.7-.3,2.38l.1.05c.71-1.56,1.77-2.82,3.18-3.79,1.4-.97,3.13-1.46,5.16-1.46,1.36,0,2.5.2,3.44.61.94.41,1.68.96,2.23,1.65.55.7.94,1.52,1.19,2.45.24.94.36,1.94.36,3.01v13.08c.71.07,1.41.15,2.09.24.68.1,1.33.23,1.95.39v3.21h-9.24v-15.56Z"/>
        <path class="st41" d="M581.26,46.46c0,.71-.05,1.52-.15,2.43h-15.41c-.07,2.82.5,4.88,1.7,6.17,1.2,1.3,3.01,1.94,5.44,1.94,1.23,0,2.46-.14,3.69-.41,1.23-.27,2.35-.66,3.35-1.14l.49,4.13c-1.23.52-2.56.91-3.99,1.17-1.43.26-2.89.39-4.38.39-3.79,0-6.68-1-8.68-2.99-1.99-1.99-2.99-5.13-2.99-9.41,0-1.81.24-3.5.73-5.06.49-1.56,1.2-2.9,2.14-4.03.94-1.13,2.1-2.02,3.47-2.67,1.38-.65,2.94-.97,4.69-.97s3.2.28,4.45.83c1.25.55,2.27,1.31,3.06,2.26.79.96,1.39,2.07,1.77,3.33.39,1.26.58,2.61.58,4.03M576.06,45.25c.06-1.65-.34-2.97-1.22-3.94-.87-.97-2.09-1.46-3.65-1.46-1.46,0-2.67.49-3.62,1.46-.96.97-1.55,2.28-1.77,3.94h10.26Z"/>
        <path class="st41" d="M600.61,41.12c-2.66-.45-4.6.15-5.83,1.8-1.23,1.65-1.85,4.29-1.85,7.92v5.98c.75.07,1.47.15,2.19.24.71.1,1.39.23,2.04.39v3.21h-13.66v-3.21c.65-.16,1.33-.29,2.04-.39.71-.1,1.44-.18,2.19-.24v-16.28c-.58-.1-1.26-.19-2.02-.27-.76-.08-1.5-.15-2.21-.22v-3.21c1.36-.16,2.87-.27,4.51-.34,1.65-.06,3.22-.06,4.73,0,0,.68-.04,1.51-.12,2.48-.08.97-.2,1.93-.37,2.87h.05c.3-.81.67-1.59,1.12-2.33.46-.75,1.02-1.4,1.7-1.97.68-.57,1.49-.99,2.43-1.26.94-.27,2.04-.36,3.31-.27l-.24,5.1Z"/>
      </g>
    </g>
  </g>
</svg>